  0
SECTION
  2
HEADER
  9
$ACADVER
  1
AC1032
  9
$ACADMAINTVER
 90
4
  9
$DWGCODEPAGE
  3
ANSI_1252
  9
$LASTSAVEDBY
  1
ezdxf
  9
$REQUIREDVERSIONS
160
0
  9
$INSBASE
 10
0.0
 20
0.0
 30
0.0
  9
$EXTMIN
 10
1e+20
 20
1e+20
 30
1e+20
  9
$EXTMAX
 10
-1e+20
 20
-1e+20
 30
-1e+20
  9
$LIMMIN
 10
0.0
 20
0.0
  9
$LIMMAX
 10
420.0
 20
297.0
  9
$ORTHOMODE
 70
0
  9
$REGENMODE
 70
1
  9
$FILLMODE
 70
1
  9
$QTEXTMODE
 70
0
  9
$MIRRTEXT
 70
1
  9
$LTSCALE
 40
1.0
  9
$ATTMODE
 70
1
  9
$TEXTSIZE
 40
2.5
  9
$TRACEWID
 40
1.0
  9
$TEXTSTYLE
  7
Standard
  9
$CLAYER
  8
0
  9
$CELTYPE
  6
ByLayer
  9
$CECOLOR
 62
256
  9
$CELTSCALE
 40
1.0
  9
$DISPSILH
 70
0
  9
$DIMSCALE
 40
1.0
  9
$DIMASZ
 40
2.5
  9
$DIMEXO
 40
0.625
  9
$DIMDLI
 40
3.75
  9
$DIMRND
 40
0.0
  9
$DIMDLE
 40
0.0
  9
$DIMEXE
 40
1.25
  9
$DIMTP
 40
0.0
  9
$DIMTM
 40
0.0
  9
$DIMTXT
 40
2.5
  9
$DIMCEN
 40
2.5
  9
$DIMTSZ
 40
0.0
  9
$DIMTOL
 70
0
  9
$DIMLIM
 70
0
  9
$DIMTIH
 70
0
  9
$DIMTOH
 70
0
  9
$DIMSE1
 70
0
  9
$DIMSE2
 70
0
  9
$DIMTAD
 70
1
  9
$DIMZIN
 70
8
  9
$DIMBLK
  1

  9
$DIMASO
 70
1
  9
$DIMSHO
 70
1
  9
$DIMPOST
  1

  9
$DIMAPOST
  1

  9
$DIMALT
 70
0
  9
$DIMALTD
 70
3
  9
$DIMALTF
 40
0.03937007874
  9
$DIMLFAC
 40
1.0
  9
$DIMTOFL
 70
1
  9
$DIMTVP
 40
0.0
  9
$DIMTIX
 70
0
  9
$DIMSOXD
 70
0
  9
$DIMSAH
 70
0
  9
$DIMBLK1
  1

  9
$DIMBLK2
  1

  9
$DIMSTYLE
  2
ISO-25
  9
$DIMCLRD
 70
0
  9
$DIMCLRE
 70
0
  9
$DIMCLRT
 70
0
  9
$DIMTFAC
 40
1.0
  9
$DIMGAP
 40
0.625
  9
$DIMJUST
 70
0
  9
$DIMSD1
 70
0
  9
$DIMSD2
 70
0
  9
$DIMTOLJ
 70
0
  9
$DIMTZIN
 70
8
  9
$DIMALTZ
 70
0
  9
$DIMALTTZ
 70
0
  9
$DIMUPT
 70
0
  9
$DIMDEC
 70
2
  9
$DIMTDEC
 70
2
  9
$DIMALTU
 70
2
  9
$DIMALTTD
 70
3
  9
$DIMTXSTY
  7
Standard
  9
$DIMAUNIT
 70
0
  9
$DIMADEC
 70
0
  9
$DIMALTRND
 40
0.0
  9
$DIMAZIN
 70
0
  9
$DIMDSEP
 70
44
  9
$DIMATFIT
 70
3
  9
$DIMFRAC
 70
0
  9
$DIMLDRBLK
  1

  9
$DIMLUNIT
 70
2
  9
$DIMLWD
 70
-2
  9
$DIMLWE
 70
-2
  9
$DIMTMOVE
 70
0
  9
$DIMFXL
 40
1.0
  9
$DIMFXLON
 70
0
  9
$DIMJOGANG
 40
0.785398163397
  9
$DIMTFILL
 70
0
  9
$DIMTFILLCLR
 70
0
  9
$DIMARCSYM
 70
0
  9
$DIMLTYPE
  6

  9
$DIMLTEX1
  6

  9
$DIMLTEX2
  6

  9
$DIMTXTDIRECTION
 70
0
  9
$LUNITS
 70
2
  9
$LUPREC
 70
4
  9
$SKETCHINC
 40
1.0
  9
$FILLETRAD
 40
10.0
  9
$AUNITS
 70
0
  9
$AUPREC
 70
2
  9
$MENU
  1
.
  9
$ELEVATION
 40
0.0
  9
$PELEVATION
 40
0.0
  9
$THICKNESS
 40
0.0
  9
$LIMCHECK
 70
0
  9
$CHAMFERA
 40
0.0
  9
$CHAMFERB
 40
0.0
  9
$CHAMFERC
 40
0.0
  9
$CHAMFERD
 40
0.0
  9
$SKPOLY
 70
0
  9
$TDCREATE
 40
2461292.3769444446
  9
$TDUCREATE
 40
2458532.153996898
  9
$TDUPDATE
 40
2461292.3769444446
  9
$TDUUPDATE
 40
2458532.1544311
  9
$TDINDWG
 40
0.0
  9
$TDUSRTIMER
 40
0.0
  9
$USRTIMER
 70
1
  9
$ANGBASE
 50
0.0
  9
$ANGDIR
 70
0
  9
$PDMODE
 70
0
  9
$PDSIZE
 40
0.0
  9
$PLINEWID
 40
0.0
  9
$SPLFRAME
 70
0
  9
$SPLINETYPE
 70
6
  9
$SPLINESEGS
 70
8
  9
$HANDSEED
  5
4E
  9
$SURFTAB1
 70
6
  9
$SURFTAB2
 70
6
  9
$SURFTYPE
 70
6
  9
$SURFU
 70
6
  9
$SURFV
 70
6
  9
$UCSBASE
  2

  9
$UCSNAME
  2

  9
$UCSORG
 10
0.0
 20
0.0
 30
0.0
  9
$UCSXDIR
 10
1.0
 20
0.0
 30
0.0
  9
$UCSYDIR
 10
0.0
 20
1.0
 30
0.0
  9
$UCSORTHOREF
  2

  9
$UCSORTHOVIEW
 70
0
  9
$UCSORGTOP
 10
0.0
 20
0.0
 30
0.0
  9
$UCSORGBOTTOM
 10
0.0
 20
0.0
 30
0.0
  9
$UCSORGLEFT
 10
0.0
 20
0.0
 30
0.0
  9
$UCSORGRIGHT
 10
0.0
 20
0.0
 30
0.0
  9
$UCSORGFRONT
 10
0.0
 20
0.0
 30
0.0
  9
$UCSORGBACK
 10
0.0
 20
0.0
 30
0.0
  9
$PUCSBASE
  2

  9
$PUCSNAME
  2

  9
$PUCSORG
 10
0.0
 20
0.0
 30
0.0
  9
$PUCSXDIR
 10
1.0
 20
0.0
 30
0.0
  9
$PUCSYDIR
 10
0.0
 20
1.0
 30
0.0
  9
$PUCSORTHOREF
  2

  9
$PUCSORTHOVIEW
 70
0
  9
$PUCSORGTOP
 10
0.0
 20
0.0
 30
0.0
  9
$PUCSORGBOTTOM
 10
0.0
 20
0.0
 30
0.0
  9
$PUCSORGLEFT
 10
0.0
 20
0.0
 30
0.0
  9
$PUCSORGRIGHT
 10
0.0
 20
0.0
 30
0.0
  9
$PUCSORGFRONT
 10
0.0
 20
0.0
 30
0.0
  9
$PUCSORGBACK
 10
0.0
 20
0.0
 30
0.0
  9
$USERI1
 70
0
  9
$USERI2
 70
0
  9
$USERI3
 70
0
  9
$USERI4
 70
0
  9
$USERI5
 70
0
  9
$USERR1
 40
0.0
  9
$USERR2
 40
0.0
  9
$USERR3
 40
0.0
  9
$USERR4
 40
0.0
  9
$USERR5
 40
0.0
  9
$WORLDVIEW
 70
1
  9
$SHADEDGE
 70
3
  9
$SHADEDIF
 70
70
  9
$TILEMODE
 70
1
  9
$MAXACTVP
 70
64
  9
$PINSBASE
 10
0.0
 20
0.0
 30
0.0
  9
$PLIMCHECK
 70
0
  9
$PEXTMIN
 10
1e+20
 20
1e+20
 30
1e+20
  9
$PEXTMAX
 10
-1e+20
 20
-1e+20
 30
-1e+20
  9
$PLIMMIN
 10
0.0
 20
0.0
  9
$PLIMMAX
 10
420.0
 20
297.0
  9
$UNITMODE
 70
0
  9
$VISRETAIN
 70
1
  9
$PLINEGEN
 70
0
  9
$PSLTSCALE
 70
1
  9
$TREEDEPTH
 70
3020
  9
$CMLSTYLE
  2
Standard
  9
$CMLJUST
 70
0
  9
$CMLSCALE
 40
20.0
  9
$PROXYGRAPHICS
 70
1
  9
$MEASUREMENT
 70
1
  9
$CELWEIGHT
370
-1
  9
$ENDCAPS
280
0
  9
$JOINSTYLE
280
0
  9
$LWDISPLAY
290
0
  9
$INSUNITS
 70
6
  9
$HYPERLINKBASE
  1

  9
$STYLESHEET
  1

  9
$XEDIT
290
1
  9
$CEPSNTYPE
380
0
  9
$PSTYLEMODE
290
1
  9
$FINGERPRINTGUID
  2
{F2CDA25F-BC59-4320-9E97-833608B21F2C}
  9
$VERSIONGUID
  2
{D61245F7-9366-41A9-BD23-623E91178C96}
  9
$EXTNAMES
290
1
  9
$PSVPSCALE
 40
0.0
  9
$OLESTARTUP
290
0
  9
$SORTENTS
280
127
  9
$INDEXCTL
280
0
  9
$HIDETEXT
280
1
  9
$XCLIPFRAME
280
1
  9
$HALOGAP
280
0
  9
$OBSCOLOR
 70
257
  9
$OBSLTYPE
280
0
  9
$INTERSECTIONDISPLAY
280
0
  9
$INTERSECTIONCOLOR
 70
257
  9
$DIMASSOC
280
2
  9
$PROJECTNAME
  1

  9
$CAMERADISPLAY
290
0
  9
$LENSLENGTH
 40
50.0
  9
$CAMERAHEIGHT
 40
0.0
  9
$STEPSPERSEC
 40
24.0
  9
$STEPSIZE
 40
100.0
  9
$3DDWFPREC
 40
2.0
  9
$PSOLWIDTH
 40
0.005
  9
$PSOLHEIGHT
 40
0.08
  9
$LOFTANG1
 40
1.570796326795
  9
$LOFTANG2
 40
1.570796326795
  9
$LOFTMAG1
 40
0.0
  9
$LOFTMAG2
 40
0.0
  9
$LOFTPARAM
 70
7
  9
$LOFTNORMALS
280
1
  9
$LATITUDE
 40
37.795
  9
$LONGITUDE
 40
-122.394
  9
$NORTHDIRECTION
 40
0.0
  9
$TIMEZONE
 70
-8000
  9
$LIGHTGLYPHDISPLAY
280
1
  9
$TILEMODELIGHTSYNCH
280
1
  9
$CMATERIAL
347
20
  9
$SOLIDHIST
280
0
  9
$SHOWHIST
280
1
  9
$DWFFRAME
280
2
  9
$DGNFRAME
280
2
  9
$REALWORLDSCALE
290
1
  9
$INTERFERECOLOR
 62
256
  9
$CSHADOW
280
0
  9
$SHADOWPLANELOCATION
 40
0.0
  0
ENDSEC
  0
SECTION
  2
CLASSES
  0
CLASS
  1
ACDBDICTIONARYWDFLT
  2
AcDbDictionaryWithDefault
  3
ObjectDBX Classes
 90
0
 91
0
280
0
281
0
  0
CLASS
  1
SUN
  2
AcDbSun
  3
SCENEOE
 90
1153
 91
0
280
0
281
0
  0
CLASS
  1
VISUALSTYLE
  2
AcDbVisualStyle
  3
ObjectDBX Classes
 90
4095
 91
0
280
0
281
0
  0
CLASS
  1
MATERIAL
  2
AcDbMaterial
  3
ObjectDBX Classes
 90
1153
 91
0
280
0
281
0
  0
CLASS
  1
SCALE
  2
AcDbScale
  3
ObjectDBX Classes
 90
1153
 91
0
280
0
281
0
  0
CLASS
  1
TABLESTYLE
  2
AcDbTableStyle
  3
ObjectDBX Classes
 90
4095
 91
0
280
0
281
0
  0
CLASS
  1
MLEADERSTYLE
  2
AcDbMLeaderStyle
  3
ACDB_MLEADERSTYLE_CLASS
 90
4095
 91
0
280
0
281
0
  0
CLASS
  1
DICTIONARYVAR
  2
AcDbDictionaryVar
  3
ObjectDBX Classes
 90
0
 91
0
280
0
281
0
  0
CLASS
  1
CELLSTYLEMAP
  2
AcDbCellStyleMap
  3
ObjectDBX Classes
 90
1152
 91
0
280
0
281
0
  0
CLASS
  1
MENTALRAYRENDERSETTINGS
  2
AcDbMentalRayRenderSettings
  3
SCENEOE
 90
1024
 91
0
280
0
281
0
  0
CLASS
  1
ACDBDETAILVIEWSTYLE
  2
AcDbDetailViewStyle
  3
ObjectDBX Classes
 90
1025
 91
0
280
0
281
0
  0
CLASS
  1
ACDBSECTIONVIEWSTYLE
  2
AcDbSectionViewStyle
  3
ObjectDBX Classes
 90
1025
 91
0
280
0
281
0
  0
CLASS
  1
RASTERVARIABLES
  2
AcDbRasterVariables
  3
ISM
 90
0
 91
0
280
0
281
0
  0
CLASS
  1
ACDBPLACEHOLDER
  2
AcDbPlaceHolder
  3
ObjectDBX Classes
 90
0
 91
0
280
0
281
0
  0
CLASS
  1
LAYOUT
  2
AcDbLayout
  3
ObjectDBX Classes
 90
0
 91
0
280
0
281
0
  0
ENDSEC
  0
SECTION
  2
TABLES
  0
TABLE
  2
VPORT
  5
8
330
0
100
AcDbSymbolTable
 70
1
  0
VPORT
  5
23
330
8
100
AcDbSymbolTableRecord
100
AcDbViewportTableRecord
  2
*Active
 70
0
 10
0.0
 20
0.0
 11
1.0
 21
1.0
 12
0.0
 22
0.0
 13
0.0
 23
0.0
 14
0.5
 24
0.5
 15
0.5
 25
0.5
 16
0.0
 26
0.0
 36
1.0
 17
0.0
 27
0.0
 37
0.0
 40
1000.0
 41
1.34
 42
50.0
 43
0.0
 44
0.0
 50
0.0
 51
0.0
 71
0
 72
1000
 73
1
 74
3
 75
0
 76
0
 77
0
 78
0
281
0
 65
0
146
0.0
  0
ENDTAB
  0
TABLE
  2
LTYPE
  5
2
330
0
100
AcDbSymbolTable
 70
3
  0
LTYPE
  5
24
330
2
100
AcDbSymbolTableRecord
100
AcDbLinetypeTableRecord
  2
ByBlock
 70
0
  3

 72
65
 73
0
 40
0.0
  0
LTYPE
  5
25
330
2
100
AcDbSymbolTableRecord
100
AcDbLinetypeTableRecord
  2
ByLayer
 70
0
  3

 72
65
 73
0
 40
0.0
  0
LTYPE
  5
26
330
2
100
AcDbSymbolTableRecord
100
AcDbLinetypeTableRecord
  2
Continuous
 70
0
  3

 72
65
 73
0
 40
0.0
  0
ENDTAB
  0
TABLE
  2
LAYER
  5
1
330
0
100
AcDbSymbolTable
 70
4
  0
LAYER
  5
27
330
1
100
AcDbSymbolTableRecord
100
AcDbLayerTableRecord
  2
0
 70
0
 62
7
  6
Continuous
370
-3
390
13
347
21
  0
LAYER
  5
28
330
1
100
AcDbSymbolTableRecord
100
AcDbLayerTableRecord
  2
Defpoints
 70
0
 62
7
  6
Continuous
290
0
370
-3
390
13
347
21
  0
LAYER
  5
2F
330
1
100
AcDbSymbolTableRecord
100
AcDbLayerTableRecord
  2
UNIT_CELL_BOUND
 70
0
 62
7
  6
Continuous
370
-3
390
13
347
21
  0
LAYER
  5
30
330
1
100
AcDbSymbolTableRecord
100
AcDbLayerTableRecord
  2
CONDUCTIVE_PATCHES
 70
0
 62
1
  6
Continuous
370
-3
390
13
347
21
  0
ENDTAB
  0
TABLE
  2
STYLE
  5
5
330
0
100
AcDbSymbolTable
 70
1
  0
STYLE
  5
29
330
5
100
AcDbSymbolTableRecord
100
AcDbTextStyleTableRecord
  2
Standard
 70
0
 40
0.0
 41
1.0
 50
0.0
 71
0
 42
2.5
  3
txt
  4

  0
ENDTAB
  0
TABLE
  2
VIEW
  5
7
330
0
100
AcDbSymbolTable
 70
0
  0
ENDTAB
  0
TABLE
  2
UCS
  5
6
330
0
100
AcDbSymbolTable
 70
0
  0
ENDTAB
  0
TABLE
  2
APPID
  5
3
330
0
100
AcDbSymbolTable
 70
3
  0
APPID
  5
2A
330
3
100
AcDbSymbolTableRecord
100
AcDbRegAppTableRecord
  2
ACAD
 70
0
  0
APPID
  5
4B
330
3
100
AcDbSymbolTableRecord
100
AcDbRegAppTableRecord
  2
HATCHBACKGROUNDCOLOR
 70
0
  0
APPID
  5
4C
330
3
100
AcDbSymbolTableRecord
100
AcDbRegAppTableRecord
  2
EZDXF
 70
0
  0
ENDTAB
  0
TABLE
  2
DIMSTYLE
  5
4
330
0
100
AcDbSymbolTable
 70
1
100
AcDbDimStyleTable
  0
DIMSTYLE
105
2B
330
4
100
AcDbSymbolTableRecord
100
AcDbDimStyleTableRecord
  2
Standard
 70
0
 40
1.0
 41
2.5
 42
0.625
 43
3.75
 44
1.25
 45
0.0
 46
0.0
 47
0.0
 48
0.0
 49
2.5
140
2.5
141
2.5
142
0.0
143
0.03937007874
144
1.0
145
0.0
146
1.0
147
0.625
148
0.0
 69
0
 70
0
 71
0
 72
0
 73
0
 74
0
 75
0
 76
0
 77
1
 78
8
 79
3
170
0
171
3
172
1
173
0
174
0
175
0
176
0
177
0
178
0
179
2
271
2
272
2
273
2
274
3
275
0
276
0
277
2
278
44
279
0
280
0
281
0
282
0
283
0
284
8
285
0
286
0
288
0
289
3
290
0
371
-2
372
-2
  0
ENDTAB
  0
TABLE
  2
BLOCK_RECORD
  5
9
330
0
100
AcDbSymbolTable
 70
2
  0
BLOCK_RECORD
  5
17
330
9
100
AcDbSymbolTableRecord
100
AcDbBlockTableRecord
  2
*Model_Space
340
1A
 70
0
280
1
281
0
  0
BLOCK_RECORD
  5
1B
330
9
100
AcDbSymbolTableRecord
100
AcDbBlockTableRecord
  2
*Paper_Space
340
1E
 70
0
280
1
281
0
  0
ENDTAB
  0
ENDSEC
  0
SECTION
  2
BLOCKS
  0
BLOCK
  5
18
330
17
100
AcDbEntity
  8
0
100
AcDbBlockBegin
  2
*Model_Space
 70
0
 10
0.0
 20
0.0
 30
0.0
  3
*Model_Space
  1

  0
ENDBLK
  5
19
330
17
100
AcDbEntity
  8
0
100
AcDbBlockEnd
  0
BLOCK
  5
1C
330
1B
100
AcDbEntity
  8
0
100
AcDbBlockBegin
  2
*Paper_Space
 70
0
 10
0.0
 20
0.0
 30
0.0
  3
*Paper_Space
  1

  0
ENDBLK
  5
1D
330
1B
100
AcDbEntity
  8
0
100
AcDbBlockEnd
  0
ENDSEC
  0
SECTION
  2
ENTITIES
  0
LWPOLYLINE
  5
31
330
17
100
AcDbEntity
  8
UNIT_CELL_BOUND
100
AcDbPolyline
 90
5
 70
0
 10
-2.8575
 20
-2.54
 10
2.8575
 20
-2.54
 10
2.8575
 20
2.54
 10
-2.8575
 20
2.54
 10
-2.8575
 20
-2.54
  0
LWPOLYLINE
  5
32
330
17
100
AcDbEntity
  8
CONDUCTIVE_PATCHES
100
AcDbPolyline
 90
33
 70
0
 10
-0.759998371817282
 20
1.7859375
 10
-0.7590234375
 20
1.7865991745767338
 10
-0.7257985734269736
 20
1.825625
 10
-0.714375
 20
1.847435897033573
 10
-0.6877294231787465
 20
1.8653125
 10
-0.6697265625
 20
1.9044773757805362
 10
-0.6250781249999999
 20
1.9033541554067555
 10
-0.6237230407798563
 20
1.905
 10
-0.6067574407150724
 20
1.9446875000000001
 10
-0.6016527861287363
 20
1.984375
 10
-0.6250781249999999
 20
2.020937391186178
 10
-0.6272376808195083
 20
2.0240625
 10
-0.6631922387789517
 20
2.06375
 10
-0.6697265625
 20
2.0657515959483304
 10
-0.714375
 20
2.0638938061134855
 10
-0.7151031489880129
 20
2.06375
 10
-0.714375
 20
2.0634671738400576
 10
-0.687152263466407
 20
2.0240625
 10
-0.714375
 20
1.9859940713707243
 10
-0.7590234375
 20
2.010376246613017
 10
-0.803671875
 20
2.0154914354219873
 10
-0.8458829801943218
 20
1.984375
 10
-0.8483203125
 20
1.9800557647128676
 10
-0.8775893734335918
 20
1.9446875000000001
 10
-0.89296875
 20
1.9231359748031347
 10
-0.9015972979540336
 20
1.905
 10
-0.9011932298467599
 20
1.8653125
 10
-0.89296875
 20
1.8265929636413993
 10
-0.8923833551841435
 20
1.825625
 10
-0.8483203125
 20
1.791361701892759
 10
-0.8459762720239563
 20
1.7859375
 10
-0.803671875
 20
1.750778157370119
 10
-0.759998371817282
 20
1.7859375
  0
LWPOLYLINE
  5
33
330
17
100
AcDbEntity
  8
CONDUCTIVE_PATCHES
100
AcDbPolyline
 90
31
 70
0
 10
0.8010864161695839
 20
1.7859375
 10
0.803671875
 20
1.7918832764437513
 10
0.8474856200624092
 20
1.825625
 10
0.8483203125
 20
1.8270220496490026
 10
0.8563347209646379
 20
1.8653125
 10
0.856760852180263
 20
1.905
 10
0.8483203125
 20
1.92287502184483
 10
0.8328737911563775
 20
1.9446875000000001
 10
0.803671875
 20
1.9801508221551671
 10
0.8013060231740626
 20
1.984375
 10
0.7590234375
 20
2.0157095370975977
 10
0.714375
 20
2.0104458481220036
 10
0.6697265625
 20
1.9855360467237242
 10
0.6419590634137151
 20
2.0240625
 10
0.6623542879469385
 20
2.06375
 10
0.6250781249999999
 20
2.065265075869945
 10
0.6202050768864896
 20
2.06375
 10
0.5846260516353721
 20
2.0240625
 10
0.5804296875
 20
2.0180056194100215
 10
0.5587489859961027
 20
1.984375
 10
0.5624271803869769
 20
1.9446875000000001
 10
0.5790037743927692
 20
1.905
 10
0.5804296875
 20
1.9032162472336285
 10
0.6250781249999999
 20
1.9048180056428965
 10
0.6427075039960471
 20
1.8653125
 10
0.6697265625
 20
1.8472302842607329
 10
0.6810274050553885
 20
1.825625
 10
0.714375
 20
1.7865892336506766
 10
0.7153424367566267
 20
1.7859375
 10
0.7590234375
 20
1.7509683337892916
 10
0.8010864161695839
 20
1.7859375
  0
LWPOLYLINE
  5
34
330
17
100
AcDbEntity
  8
CONDUCTIVE_PATCHES
100
AcDbPolyline
 90
7
 70
0
 10
-0.5291445167803803
 20
1.984375
 10
-0.5335651835792637
 20
2.0240625
 10
-0.53578125
 20
2.026123368549497
 10
-0.5530509104544563
 20
2.0240625
 10
-0.5515110598955567
 20
1.984375
 10
-0.53578125
 20
1.9816160305987987
 10
-0.5291445167803803
 20
1.984375
  0
LWPOLYLINE
  5
35
330
17
100
AcDbEntity
  8
CONDUCTIVE_PATCHES
100
AcDbPolyline
 90
5
 70
0
 10
0.5040021834006609
 20
1.984375
 10
0.49113281249999996
 20
2.021338895885595
 10
0.4857632848961975
 20
1.984375
 10
0.49113281249999996
 20
1.982141867213083
 10
0.5040021834006609
 20
1.984375
  0
LWPOLYLINE
  5
36
330
17
100
AcDbEntity
  8
CONDUCTIVE_PATCHES
100
AcDbPolyline
 90
9
 70
0
 10
-1.3978790400134617
 20
1.349375
 10
-1.3841015625
 20
1.365436604865477
 10
-1.373918622790315
 20
1.3890625
 10
-1.3841015625
 20
1.3917976202114772
 10
-1.390687550517802
 20
1.3890625
 10
-1.42875
 20
1.357653616894717
 10
-1.43910192189802
 20
1.349375
 10
-1.42875
 20
1.3443081367385128
 10
-1.3978790400134617
 20
1.349375
  0
LWPOLYLINE
  5
37
330
17
100
AcDbEntity
  8
CONDUCTIVE_PATCHES
100
AcDbPolyline
 90
9
 70
0
 10
1.3944077933958527
 20
1.349375
 10
1.3841015625
 20
1.3576474857998686
 10
1.3459916887848935
 20
1.3890625
 10
1.339453125
 20
1.3917668008411748
 10
1.3294945152809392
 20
1.3890625
 10
1.339453125
 20
1.3662483358733437
 10
1.3539720526608452
 20
1.349375
 10
1.3841015625
 20
1.344358956768474
 10
1.3944077933958527
 20
1.349375
  0
LWPOLYLINE
  5
38
330
17
100
AcDbEntity
  8
CONDUCTIVE_PATCHES
100
AcDbPolyline
 90
9
 70
0
 10
-1.537030083857139
 20
1.2303125
 10
-1.518046875
 20
1.2432186104137173
 10
-1.5124039103881255
 20
1.27
 10
-1.518046875
 20
1.2791609992877961
 10
-1.5273532682562707
 20
1.27
 10
-1.5626953125
 20
1.2361243586247832
 10
-1.5657375462843868
 20
1.2303125
 10
-1.5626953125
 20
1.2214606868822724
 10
-1.537030083857139
 20
1.2303125
  0
LWPOLYLINE
  5
39
330
17
100
AcDbEntity
  8
CONDUCTIVE_PATCHES
100
AcDbPolyline
 90
9
 70
0
 10
1.521123827557373
 20
1.2303125
 10
1.518046875
 20
1.2361666136612988
 10
1.4827117434836705
 20
1.27
 10
1.4733984375
 20
1.2792015673647383
 10
1.4676983163798065
 20
1.27
 10
1.4733984375
 20
1.2425596582339997
 10
1.4914684024150506
 20
1.2303125
 10
1.518046875
 20
1.221261183781405
 10
1.521123827557373
 20
1.2303125
  0
LWPOLYLINE
  5
3A
330
17
100
AcDbEntity
  8
CONDUCTIVE_PATCHES
100
AcDbPolyline
 90
31
 70
0
 10
-2.141118081104124
 20
0.555625
 10
-2.14291997884086
 20
0.5953125
 10
-2.0984765625
 20
0.6109830303571948
 10
-2.0781339884498427
 20
0.635
 10
-2.053828125
 20
0.645045158438651
 10
-2.0099128430392397
 20
0.6746875
 10
-2.0091796875
 20
0.6755473922680537
 10
-1.9698393860882348
 20
0.714375
 10
-2.0091796875
 20
0.7517642649234905
 10
-2.015868812640017
 20
0.7540625
 10
-2.053828125
 20
0.7930081011565757
 10
-2.055399703640939
 20
0.79375
 10
-2.0984765625
 20
0.8008739137163905
 10
-2.143125
 20
0.8012527166430716
 10
-2.16323440273832
 20
0.79375
 10
-2.1877734374999998
 20
0.7800197479103725
 10
-2.2276697855334215
 20
0.7540625
 10
-2.232421875
 20
0.7519595732675415
 10
-2.2676732485501625
 20
0.714375
 10
-2.2617515894165434
 20
0.6746875
 10
-2.233728115373978
 20
0.635
 10
-2.2770703125
 20
0.6103177191886187
 10
-2.32171875
 20
0.6284451429870953
 10
-2.323423118342052
 20
0.5953125
 10
-2.32171875
 20
0.5909811250073775
 10
-2.2770703125
 20
0.5593551528082991
 10
-2.2702562504033077
 20
0.555625
 10
-2.232421875
 20
0.5363532840472217
 10
-2.1877734374999998
 20
0.5396227706840018
 10
-2.143125
 20
0.5543573924321313
 10
-2.141118081104124
 20
0.555625
  0
LWPOLYLINE
  5
3B
330
17
100
AcDbEntity
  8
CONDUCTIVE_PATCHES
100
AcDbPolyline
 90
33
 70
0
 10
2.228906528722712
 20
0.555625
 10
2.232421875
 20
0.557544397847257
 10
2.2770703125
 20
0.5895038851586295
 10
2.2793222423795503
 20
0.5953125
 10
2.2772321894457415
 20
0.635
 10
2.2770703125
 20
0.6356476251586772
 10
2.276751944894345
 20
0.635
 10
2.232421875
 20
0.6108021445599006
 10
2.1895951396626385
 20
0.635
 10
2.2170248801812673
 20
0.6746875
 10
2.2227794798957823
 20
0.714375
 10
2.1877734374999998
 20
0.7518960850631032
 10
2.182914530576378
 20
0.7540625
 10
2.143125
 20
0.7800795651098369
 10
2.1188797170350377
 20
0.79375
 10
2.0984765625
 20
0.8014198851137125
 10
2.053828125
 20
0.8010607495466918
 10
2.010268088032572
 20
0.79375
 10
2.0091796875
 20
0.7932299150076362
 10
1.970633347759959
 20
0.7540625
 10
1.9645312499999998
 20
0.7519789470387692
 10
1.9249770022955346
 20
0.714375
 10
1.9645312499999998
 20
0.6755540836556402
 10
1.9652756127704876
 20
0.6746875
 10
2.0091796875
 20
0.6451542803371844
 10
2.0337169466627696
 20
0.635
 10
2.053828125
 20
0.6113150309544392
 10
2.0978884965236118
 20
0.5953125
 10
2.0966248494893196
 20
0.555625
 10
2.0984765625
 20
0.5544203890024091
 10
2.143125
 20
0.5393398558210107
 10
2.1877734374999998
 20
0.534802156361805
 10
2.228906528722712
 20
0.555625
  0
LWPOLYLINE
  5
3C
330
17
100
AcDbEntity
  8
CONDUCTIVE_PATCHES
100
AcDbPolyline
 90
5
 70
0
 10
-2.2299095764752566
 20
0.47625
 10
-2.232421875
 20
0.4876895244119739
 10
-2.274005662197196
 20
0.47625
 10
-2.232421875
 20
0.47147704092974213
 10
-2.2299095764752566
 20
0.47625
  0
LWPOLYLINE
  5
3D
330
17
100
AcDbEntity
  8
CONDUCTIVE_PATCHES
100
AcDbPolyline
 90
7
 70
0
 10
2.2347406801454834
 20
0.47625
 10
2.232421875
 20
0.4916027742155809
 10
2.1877734374999998
 20
0.490232469438925
 10
2.184669499983526
 20
0.47625
 10
2.1877734374999998
 20
0.470350506000141
 10
2.232421875
 20
0.4742798880866386
 10
2.2347406801454834
 20
0.47625
  0
LWPOLYLINE
  5
3E
330
17
100
AcDbEntity
  8
CONDUCTIVE_PATCHES
100
AcDbPolyline
 90
9
 70
0
 10
0.01736347122524277
 20
0.0
 10
0.017361640517907374
 20
0.0396875
 10
0.0
 20
0.05512174624920254
 10
-0.0446484375
 20
0.05512010206500388
 10
-0.06201202211664316
 20
0.0396875
 10
-0.06201005724362083
 20
0.0
 10
-0.0446484375
 20
-0.015434268413315943
 10
0.0
 20
-0.01543251236289795
 10
0.01736347122524277
 20
0.0
  0
LWPOLYLINE
  5
3F
330
17
100
AcDbEntity
  8
CONDUCTIVE_PATCHES
100
AcDbPolyline
 90
7
 70
0
 10
-2.229317975330141
 20
-0.4365625
 10
-2.232421875
 20
-0.4306630718257514
 10
-2.2770703125
 20
-0.43459255705050914
 10
-2.2793889179853055
 20
-0.4365625
 10
-2.2770703125
 20
-0.45191437450340843
 10
-2.232421875
 20
-0.45054484447013043
 10
-2.229317975330141
 20
-0.4365625
  0
LWPOLYLINE
  5
40
330
17
100
AcDbEntity
  8
CONDUCTIVE_PATCHES
100
AcDbPolyline
 90
5
 70
0
 10
2.2293570123768958
 20
-0.4365625
 10
2.1877734374999998
 20
-0.4317896067378812
 10
2.1852611745859587
 20
-0.4365625
 10
2.1877734374999998
 20
-0.4480019025484404
 10
2.2293570123768958
 20
-0.4365625
  0
LWPOLYLINE
  5
41
330
17
100
AcDbEntity
  8
CONDUCTIVE_PATCHES
100
AcDbPolyline
 90
33
 70
0
 10
-2.054916987010135
 20
-0.7540625
 10
-2.053828125
 20
-0.7535421957842274
 10
-2.015282261178616
 20
-0.714375
 10
-2.0091796875
 20
-0.712291286685414
 10
-1.969625548958711
 20
-0.6746875
 10
-2.0091796875
 20
-0.63586670926546
 10
-2.009924158052812
 20
-0.635
 10
-2.053828125
 20
-0.6054668376747594
 10
-2.078365505313588
 20
-0.5953125
 10
-2.0984765625
 20
-0.571627651500343
 10
-2.1425372720036098
 20
-0.555625
 10
-2.141273456274786
 20
-0.5159375
 10
-2.143125
 20
-0.5147329951799988
 10
-2.1877734374999998
 20
-0.49965241081689443
 10
-2.232421875
 20
-0.49511472760125497
 10
-2.273554727642108
 20
-0.5159375
 10
-2.2770703125
 20
-0.5178570285123417
 10
-2.32171875
 20
-0.5498165487896473
 10
-2.32397061347902
 20
-0.555625
 10
-2.3218805618647527
 20
-0.5953125
 10
-2.32171875
 20
-0.595959864442106
 10
-2.321400510465299
 20
-0.5953125
 10
-2.2770703125
 20
-0.5711145929428475
 10
-2.234243397101052
 20
-0.5953125
 10
-2.261673281423235
 20
-0.635
 10
-2.267427858579939
 20
-0.6746875
 10
-2.232421875
 20
-0.7122084675627957
 10
-2.227562699812805
 20
-0.714375
 10
-2.1877734374999998
 20
-0.740391935243978
 10
-2.163527970974696
 20
-0.7540625
 10
-2.143125
 20
-0.7617323231687423
 10
-2.0984765625
 20
-0.7613731189828099
 10
-2.054916987010135
 20
-0.7540625
  0
LWPOLYLINE
  5
42
330
17
100
AcDbEntity
  8
CONDUCTIVE_PATCHES
100
AcDbPolyline
 90
31
 70
0
 10
2.1185859662424353
 20
-0.7540625
 10
2.143125
 20
-0.7403322499711927
 10
2.183021304066362
 20
-0.714375
 10
2.1877734374999998
 20
-0.7122720525175169
 10
2.2230248069705523
 20
-0.6746875
 10
2.2171031485643793
 20
-0.635
 10
2.1890795788390793
 20
-0.5953125
 10
2.232421875
 20
-0.5706301967006865
 10
2.2770703125
 20
-0.5887578044167641
 10
2.2787746470861205
 20
-0.555625
 10
2.2770703125
 20
-0.5512936980121985
 10
2.232421875
 20
-0.5196677155311004
 10
2.2256076811293424
 20
-0.5159375
 10
2.1877734374999998
 20
-0.4966658400246528
 10
2.143125
 20
-0.4999353027325515
 10
2.0984765625
 20
-0.5146700583952939
 10
2.096469906747037
 20
-0.5159375
 10
2.0982720109337274
 20
-0.555625
 10
2.053828125
 20
-0.5712956882504977
 10
2.033485704313151
 20
-0.5953125
 10
2.0091796875
 20
-0.6053577140485014
 10
1.965264454319196
 20
-0.635
 10
1.9645312499999998
 20
-0.6358599493641669
 10
1.925191008210823
 20
-0.6746875
 10
1.9645312499999998
 20
-0.7120767549119578
 10
1.9712204074049569
 20
-0.714375
 10
2.0091796875
 20
-0.7533205372405509
 10
2.0107513953330685
 20
-0.7540625
 10
2.053828125
 20
-0.7611864125720001
 10
2.0984765625
 20
-0.7615652119830582
 10
2.1185859662424353
 20
-0.7540625
  0
LWPOLYLINE
  5
43
330
17
100
AcDbEntity
  8
CONDUCTIVE_PATCHES
100
AcDbPolyline
 90
9
 70
0
 10
-1.5123465531208071
 20
-1.2303125
 10
-1.518046875
 20
-1.2028713215928821
 10
-1.536115737948104
 20
-1.190625
 10
-1.5626953125
 20
-1.18157333828109
 10
-1.5657723856429806
 20
-1.190625
 10
-1.5626953125
 20
-1.196479334516618
 10
-1.5273604803284653
 20
-1.2303125
 10
-1.518046875
 20
-1.2395143243241469
 10
-1.5123465531208071
 20
-1.2303125
  0
LWPOLYLINE
  5
44
330
17
100
AcDbEntity
  8
CONDUCTIVE_PATCHES
100
AcDbPolyline
 90
9
 70
0
 10
1.482704838998122
 20
-1.2303125
 10
1.518046875
 20
-1.1964369777181758
 10
1.521089171027354
 20
-1.190625
 10
1.518046875
 20
-1.18177304539712
 10
1.49238147855431
 20
-1.190625
 10
1.4733984375
 20
-1.2035311758223126
 10
1.4677554852180992
 20
-1.2303125
 10
1.4733984375
 20
-1.2394734325935877
 10
1.482704838998122
 20
-1.2303125
  0
LWPOLYLINE
  5
45
330
17
100
AcDbEntity
  8
CONDUCTIVE_PATCHES
100
AcDbPolyline
 90
9
 70
0
 10
-1.3741433523969298
 20
-1.349375
 10
-1.3841015625
 20
-1.3265616573045584
 10
-1.3986211167558162
 20
-1.3096875000000001
 10
-1.42875
 20
-1.3046715667766744
 10
-1.4390560511178436
 20
-1.3096875000000001
 10
-1.42875
 20
-1.3179598033110234
 10
-1.3906398550363286
 20
-1.349375
 10
-1.3841015625
 20
-1.3520791898376214
 10
-1.3741433523969298
 20
-1.349375
  0
LWPOLYLINE
  5
46
330
17
100
AcDbEntity
  8
CONDUCTIVE_PATCHES
100
AcDbPolyline
 90
9
 70
0
 10
1.3460390656504504
 20
-1.349375
 10
1.3841015625
 20
-1.3179660584208295
 10
1.3944533757280153
 20
-1.3096875000000001
 10
1.3841015625
 20
-1.3046206812539611
 10
1.3532308528720332
 20
-1.3096875000000001
 10
1.339453125
 20
-1.3257493514839682
 10
1.3292702857599137
 20
-1.349375
 10
1.339453125
 20
-1.352110099464717
 10
1.3460390656504504
 20
-1.349375
  0
LWPOLYLINE
  5
47
330
17
100
AcDbEntity
  8
CONDUCTIVE_PATCHES
100
AcDbPolyline
 90
31
 70
0
 10
-0.6648536444286332
 20
-2.0240625
 10
-0.6292745200896431
 20
-1.984375
 10
-0.6250781249999999
 20
-1.9783180973524657
 10
-0.6033974295317934
 20
-1.9446875000000001
 10
-0.6070755981419796
 20
-1.905
 10
-0.6236520655641683
 20
-1.8653125
 10
-0.6250781249999999
 20
-1.863528567493674
 10
-0.6697265625
 20
-1.8651301347063656
 10
-0.6873558449200953
 20
-1.825625
 10
-0.714375
 20
-1.807542693011316
 10
-0.7256757816127613
 20
-1.7859375
 10
-0.7590234375
 20
-1.7469016432985898
 10
-0.7599907409158824
 20
-1.74625
 10
-0.803671875
 20
-1.7112807840268625
 10
-0.8457349259168484
 20
-1.74625
 10
-0.8483203125
 20
-1.752195602670783
 10
-0.8921343159932341
 20
-1.7859375
 10
-0.89296875
 20
-1.7873341205335966
 10
-0.9009832292483092
 20
-1.825625
 10
-0.9014093392271515
 20
-1.8653125
 10
-0.89296875
 20
-1.8831875834407943
 10
-0.8775222449549288
 20
-1.905
 10
-0.8483203125
 20
-1.940463444067945
 10
-0.8459545312362611
 20
-1.9446875000000001
 10
-0.803671875
 20
-1.9760220592581885
 10
-0.7590234375
 20
-1.9707583482452469
 10
-0.714375
 20
-1.9458486548852758
 10
-0.6866074415476344
 20
-1.984375
 10
-0.707002346785913
 20
-2.0240625
 10
-0.6697265625
 20
-2.0255775343060938
 10
-0.6648536444286332
 20
-2.0240625
  0
LWPOLYLINE
  5
48
330
17
100
AcDbEntity
  8
CONDUCTIVE_PATCHES
100
AcDbPolyline
 90
33
 70
0
 10
0.6704547590336866
 20
-2.0240625
 10
0.6697265625
 20
-2.023779655927114
 10
0.6425038799713851
 20
-1.984375
 10
0.6697265625
 20
-1.9463065822615937
 10
0.714375
 20
-1.9706887433254718
 10
0.7590234375
 20
-1.9758039298488344
 10
0.8012345647140289
 20
-1.9446875000000001
 10
0.803671875
 20
-1.9403683109826872
 10
0.8329409845776649
 20
-1.905
 10
0.8483203125
 20
-1.88344849282019
 10
0.8569488505591691
 20
-1.8653125
 10
0.8565447340678427
 20
-1.825625
 10
0.8483203125
 20
-1.7869057466992924
 10
0.8477347446284655
 20
-1.7859375
 10
0.803671875
 20
-1.7516743788966138
 10
0.8013277601022106
 20
-1.74625
 10
0.7590234375
 20
-1.7110907675593574
 10
0.7153500338337362
 20
-1.74625
 10
0.714375
 20
-1.7469117420304643
 10
0.6811502116685522
 20
-1.7859375
 10
0.6697265625
 20
-1.8077485444398012
 10
0.6430811713975552
 20
-1.825625
 10
0.6250781249999999
 20
-1.8647902778837175
 10
0.5804296875
 20
-1.8636667798765607
 10
0.5790747018379866
 20
-1.8653125
 10
0.56210902929119
 20
-1.905
 10
0.5570042349212568
 20
-1.9446875000000001
 10
0.5804296875
 20
-1.9812499811491278
 10
0.582589187333342
 20
-1.984375
 10
0.6185436628270401
 20
-2.0240625
 10
0.6250781249999999
 20
-2.026064140563128
 10
0.6697265625
 20
-2.0242063149500797
 10
0.6704547590336866
 20
-2.0240625
  0
LWPOLYLINE
  5
49
330
17
100
AcDbEntity
  8
CONDUCTIVE_PATCHES
100
AcDbPolyline
 90
5
 70
0
 10
-0.5304117299488965
 20
-1.9446875000000001
 10
-0.53578125
 20
-1.942454372956578
 10
-0.5486505871399618
 20
-1.9446875000000001
 10
-0.53578125
 20
-1.981650481241849
 10
-0.5304117299488965
 20
-1.9446875000000001
  0
LWPOLYLINE
  5
4A
330
17
100
AcDbEntity
  8
CONDUCTIVE_PATCHES
100
AcDbPolyline
 90
7
 70
0
 10
0.5084015552471458
 20
-1.984375
 10
0.5068625975897603
 20
-1.9446875000000001
 10
0.49113281249999996
 20
-1.9419285443039487
 10
0.48449611354098204
 20
-1.9446875000000001
 10
0.488916891872721
 20
-1.984375
 10
0.49113281249999996
 20
-1.986435738620861
 10
0.5084015552471458
 20
-1.984375
  0
ENDSEC
  0
SECTION
  2
OBJECTS
  0
DICTIONARY
  5
A
330
0
100
AcDbDictionary
281
1
  3
ACAD_COLOR
350
B
  3
ACAD_GROUP
350
C
  3
ACAD_LAYOUT
350
D
  3
ACAD_MATERIAL
350
E
  3
ACAD_MLEADERSTYLE
350
F
  3
ACAD_MLINESTYLE
350
10
  3
ACAD_PLOTSETTINGS
350
11
  3
ACAD_PLOTSTYLENAME
350
12
  3
ACAD_SCALELIST
350
14
  3
ACAD_TABLESTYLE
350
15
  3
ACAD_VISUALSTYLE
350
16
  3
EZDXF_META
350
2D
  0
DICTIONARY
  5
B
330
A
100
AcDbDictionary
281
1
  0
DICTIONARY
  5
C
330
A
100
AcDbDictionary
281
1
  0
DICTIONARY
  5
D
330
A
100
AcDbDictionary
281
1
  3
Model
350
1A
  3
Layout1
350
1E
  0
DICTIONARY
  5
E
330
A
100
AcDbDictionary
281
1
  3
ByBlock
350
1F
  3
ByLayer
350
20
  3
Global
350
21
  0
DICTIONARY
  5
F
330
A
100
AcDbDictionary
281
1
  3
Standard
350
2C
  0
DICTIONARY
  5
10
330
A
100
AcDbDictionary
281
1
  3
Standard
350
22
  0
DICTIONARY
  5
11
330
A
100
AcDbDictionary
281
1
  0
ACDBDICTIONARYWDFLT
  5
12
330
A
100
AcDbDictionary
281
1
  3
Normal
350
13
100
AcDbDictionaryWithDefault
340
13
  0
ACDBPLACEHOLDER
  5
13
330
12
  0
DICTIONARY
  5
14
330
A
100
AcDbDictionary
281
1
  0
DICTIONARY
  5
15
330
A
100
AcDbDictionary
281
1
  0
DICTIONARY
  5
16
330
A
100
AcDbDictionary
281
1
  0
LAYOUT
  5
1A
330
D
100
AcDbPlotSettings
  1

  4
A3
  6

 40
7.5
 41
20.0
 42
7.5
 43
20.0
 44
420.0
 45
297.0
 46
0.0
 47
0.0
 48
0.0
 49
0.0
140
0.0
141
0.0
142
1.0
143
1.0
 70
1024
 72
1
 73
0
 74
5
  7

 75
16
 76
0
 77
2
 78
300
147
1.0
148
0.0
149
0.0
100
AcDbLayout
  1
Model
 70
1
 71
0
 10
0.0
 20
0.0
 11
420.0
 21
297.0
 12
0.0
 22
0.0
 32
0.0
 14
1e+20
 24
1e+20
 34
1e+20
 15
-1e+20
 25
-1e+20
 35
-1e+20
146
0.0
 13
0.0
 23
0.0
 33
0.0
 16
1.0
 26
0.0
 36
0.0
 17
0.0
 27
1.0
 37
0.0
 76
1
330
17
  0
LAYOUT
  5
1E
330
D
100
AcDbPlotSettings
  1

  4
A3
  6

 40
7.5
 41
20.0
 42
7.5
 43
20.0
 44
420.0
 45
297.0
 46
0.0
 47
0.0
 48
0.0
 49
0.0
140
0.0
141
0.0
142
1.0
143
1.0
 70
0
 72
1
 73
0
 74
5
  7

 75
16
 76
0
 77
2
 78
300
147
1.0
148
0.0
149
0.0
100
AcDbLayout
  1
Layout1
 70
1
 71
1
 10
0.0
 20
0.0
 11
420.0
 21
297.0
 12
0.0
 22
0.0
 32
0.0
 14
1e+20
 24
1e+20
 34
1e+20
 15
-1e+20
 25
-1e+20
 35
-1e+20
146
0.0
 13
0.0
 23
0.0
 33
0.0
 16
1.0
 26
0.0
 36
0.0
 17
0.0
 27
1.0
 37
0.0
 76
1
330
1B
  0
MATERIAL
  5
1F
102
{ACAD_REACTORS
330
E
102
}
330
E
100
AcDbMaterial
  1
ByBlock
  2

 70
0
 40
1.0
 71
1
 41
1.0
 91
-1023410177
 42
1.0
 72
1
  3

 73
1
 74
1
 75
1
 44
0.5
 73
0
 45
1.0
 46
1.0
 77
1
  4

 78
1
 79
1
170
1
 48
1.0
171
1
  6

172
1
173
1
174
1
140
1.0
141
1.0
175
1
  7

176
1
177
1
178
1
143
1.0
179
1
  8

270
1
271
1
272
1
145
1.0
146
1.0
273
1
  9

274
1
275
1
276
1
 42
1.0
 72
1
  3

 73
1
 74
1
 75
1
 94
63
  0
MATERIAL
  5
20
102
{ACAD_REACTORS
330
E
102
}
330
E
100
AcDbMaterial
  1
ByLayer
  2

 70
0
 40
1.0
 71
1
 41
1.0
 91
-1023410177
 42
1.0
 72
1
  3

 73
1
 74
1
 75
1
 44
0.5
 73
0
 45
1.0
 46
1.0
 77
1
  4

 78
1
 79
1
170
1
 48
1.0
171
1
  6

172
1
173
1
174
1
140
1.0
141
1.0
175
1
  7

176
1
177
1
178
1
143
1.0
179
1
  8

270
1
271
1
272
1
145
1.0
146
1.0
273
1
  9

274
1
275
1
276
1
 42
1.0
 72
1
  3

 73
1
 74
1
 75
1
 94
63
  0
MATERIAL
  5
21
102
{ACAD_REACTORS
330
E
102
}
330
E
100
AcDbMaterial
  1
Global
  2

 70
0
 40
1.0
 71
1
 41
1.0
 91
-1023410177
 42
1.0
 72
1
  3

 73
1
 74
1
 75
1
 44
0.5
 73
0
 45
1.0
 46
1.0
 77
1
  4

 78
1
 79
1
170
1
 48
1.0
171
1
  6

172
1
173
1
174
1
140
1.0
141
1.0
175
1
  7

176
1
177
1
178
1
143
1.0
179
1
  8

270
1
271
1
272
1
145
1.0
146
1.0
273
1
  9

274
1
275
1
276
1
 42
1.0
 72
1
  3

 73
1
 74
1
 75
1
 94
63
  0
MLINESTYLE
  5
22
102
{ACAD_REACTORS
330
10
102
}
330
10
100
AcDbMlineStyle
  2
Standard
 70
0
  3

 62
256
 51
90.0
 52
90.0
 71
2
 49
0.5
 62
256
  6
BYLAYER
 49
-0.5
 62
256
  6
BYLAYER
  0
MLEADERSTYLE
  5
2C
102
{ACAD_REACTORS
330
F
102
}
330
F
100
AcDbMLeaderStyle
179
2
170
2
171
1
172
0
 90
2
 40
0.0
 41
0.0
173
1
 91
-1056964608
 92
-2
290
1
 42
2.0
291
1
 43
8.0
  3
Standard
 44
4.0
300

342
29
174
1
175
1
176
0
178
1
 93
-1056964608
 45
4.0
292
0
297
0
 46
4.0
 94
-1056964608
 47
1.0
 49
1.0
140
1.0
294
1
141
0.0
177
0
142
1.0
295
0
296
0
143
3.75
271
0
272
9
273
9
  0
DICTIONARY
  5
2D
330
A
100
AcDbDictionary
280
1
281
1
  3
CREATED_BY_EZDXF
350
2E
  3
WRITTEN_BY_EZDXF
350
4D
  0
DICTIONARYVAR
  5
2E
330
2D
100
DictionaryVariables
280
0
  1
1.4.4 @ 2026-09-08T06:02:48.133879+00:00
  0
DICTIONARYVAR
  5
4D
330
2D
100
DictionaryVariables
280
0
  1
1.4.4 @ 2026-09-08T06:02:48.135431+00:00
  0
ENDSEC
  0
EOF
