  0
SECTION
  2
HEADER
  9
$ACADVER
  1
AC1032
  9
$ACADMAINTVER
 90
4
  9
$DWGCODEPAGE
  3
ANSI_1252
  9
$LASTSAVEDBY
  1
ezdxf
  9
$REQUIREDVERSIONS
160
0
  9
$INSBASE
 10
0.0
 20
0.0
 30
0.0
  9
$EXTMIN
 10
1e+20
 20
1e+20
 30
1e+20
  9
$EXTMAX
 10
-1e+20
 20
-1e+20
 30
-1e+20
  9
$LIMMIN
 10
0.0
 20
0.0
  9
$LIMMAX
 10
420.0
 20
297.0
  9
$ORTHOMODE
 70
0
  9
$REGENMODE
 70
1
  9
$FILLMODE
 70
1
  9
$QTEXTMODE
 70
0
  9
$MIRRTEXT
 70
1
  9
$LTSCALE
 40
1.0
  9
$ATTMODE
 70
1
  9
$TEXTSIZE
 40
2.5
  9
$TRACEWID
 40
1.0
  9
$TEXTSTYLE
  7
Standard
  9
$CLAYER
  8
0
  9
$CELTYPE
  6
ByLayer
  9
$CECOLOR
 62
256
  9
$CELTSCALE
 40
1.0
  9
$DISPSILH
 70
0
  9
$DIMSCALE
 40
1.0
  9
$DIMASZ
 40
2.5
  9
$DIMEXO
 40
0.625
  9
$DIMDLI
 40
3.75
  9
$DIMRND
 40
0.0
  9
$DIMDLE
 40
0.0
  9
$DIMEXE
 40
1.25
  9
$DIMTP
 40
0.0
  9
$DIMTM
 40
0.0
  9
$DIMTXT
 40
2.5
  9
$DIMCEN
 40
2.5
  9
$DIMTSZ
 40
0.0
  9
$DIMTOL
 70
0
  9
$DIMLIM
 70
0
  9
$DIMTIH
 70
0
  9
$DIMTOH
 70
0
  9
$DIMSE1
 70
0
  9
$DIMSE2
 70
0
  9
$DIMTAD
 70
1
  9
$DIMZIN
 70
8
  9
$DIMBLK
  1

  9
$DIMASO
 70
1
  9
$DIMSHO
 70
1
  9
$DIMPOST
  1

  9
$DIMAPOST
  1

  9
$DIMALT
 70
0
  9
$DIMALTD
 70
3
  9
$DIMALTF
 40
0.03937007874
  9
$DIMLFAC
 40
1.0
  9
$DIMTOFL
 70
1
  9
$DIMTVP
 40
0.0
  9
$DIMTIX
 70
0
  9
$DIMSOXD
 70
0
  9
$DIMSAH
 70
0
  9
$DIMBLK1
  1

  9
$DIMBLK2
  1

  9
$DIMSTYLE
  2
ISO-25
  9
$DIMCLRD
 70
0
  9
$DIMCLRE
 70
0
  9
$DIMCLRT
 70
0
  9
$DIMTFAC
 40
1.0
  9
$DIMGAP
 40
0.625
  9
$DIMJUST
 70
0
  9
$DIMSD1
 70
0
  9
$DIMSD2
 70
0
  9
$DIMTOLJ
 70
0
  9
$DIMTZIN
 70
8
  9
$DIMALTZ
 70
0
  9
$DIMALTTZ
 70
0
  9
$DIMUPT
 70
0
  9
$DIMDEC
 70
2
  9
$DIMTDEC
 70
2
  9
$DIMALTU
 70
2
  9
$DIMALTTD
 70
3
  9
$DIMTXSTY
  7
Standard
  9
$DIMAUNIT
 70
0
  9
$DIMADEC
 70
0
  9
$DIMALTRND
 40
0.0
  9
$DIMAZIN
 70
0
  9
$DIMDSEP
 70
44
  9
$DIMATFIT
 70
3
  9
$DIMFRAC
 70
0
  9
$DIMLDRBLK
  1

  9
$DIMLUNIT
 70
2
  9
$DIMLWD
 70
-2
  9
$DIMLWE
 70
-2
  9
$DIMTMOVE
 70
0
  9
$DIMFXL
 40
1.0
  9
$DIMFXLON
 70
0
  9
$DIMJOGANG
 40
0.785398163397
  9
$DIMTFILL
 70
0
  9
$DIMTFILLCLR
 70
0
  9
$DIMARCSYM
 70
0
  9
$DIMLTYPE
  6

  9
$DIMLTEX1
  6

  9
$DIMLTEX2
  6

  9
$DIMTXTDIRECTION
 70
0
  9
$LUNITS
 70
2
  9
$LUPREC
 70
4
  9
$SKETCHINC
 40
1.0
  9
$FILLETRAD
 40
10.0
  9
$AUNITS
 70
0
  9
$AUPREC
 70
2
  9
$MENU
  1
.
  9
$ELEVATION
 40
0.0
  9
$PELEVATION
 40
0.0
  9
$THICKNESS
 40
0.0
  9
$LIMCHECK
 70
0
  9
$CHAMFERA
 40
0.0
  9
$CHAMFERB
 40
0.0
  9
$CHAMFERC
 40
0.0
  9
$CHAMFERD
 40
0.0
  9
$SKPOLY
 70
0
  9
$TDCREATE
 40
2461288.7699189815
  9
$TDUCREATE
 40
2458532.153996898
  9
$TDUPDATE
 40
2461288.7699189815
  9
$TDUUPDATE
 40
2458532.1544311
  9
$TDINDWG
 40
0.0
  9
$TDUSRTIMER
 40
0.0
  9
$USRTIMER
 70
1
  9
$ANGBASE
 50
0.0
  9
$ANGDIR
 70
0
  9
$PDMODE
 70
0
  9
$PDSIZE
 40
0.0
  9
$PLINEWID
 40
0.0
  9
$SPLFRAME
 70
0
  9
$SPLINETYPE
 70
6
  9
$SPLINESEGS
 70
8
  9
$HANDSEED
  5
5A
  9
$SURFTAB1
 70
6
  9
$SURFTAB2
 70
6
  9
$SURFTYPE
 70
6
  9
$SURFU
 70
6
  9
$SURFV
 70
6
  9
$UCSBASE
  2

  9
$UCSNAME
  2

  9
$UCSORG
 10
0.0
 20
0.0
 30
0.0
  9
$UCSXDIR
 10
1.0
 20
0.0
 30
0.0
  9
$UCSYDIR
 10
0.0
 20
1.0
 30
0.0
  9
$UCSORTHOREF
  2

  9
$UCSORTHOVIEW
 70
0
  9
$UCSORGTOP
 10
0.0
 20
0.0
 30
0.0
  9
$UCSORGBOTTOM
 10
0.0
 20
0.0
 30
0.0
  9
$UCSORGLEFT
 10
0.0
 20
0.0
 30
0.0
  9
$UCSORGRIGHT
 10
0.0
 20
0.0
 30
0.0
  9
$UCSORGFRONT
 10
0.0
 20
0.0
 30
0.0
  9
$UCSORGBACK
 10
0.0
 20
0.0
 30
0.0
  9
$PUCSBASE
  2

  9
$PUCSNAME
  2

  9
$PUCSORG
 10
0.0
 20
0.0
 30
0.0
  9
$PUCSXDIR
 10
1.0
 20
0.0
 30
0.0
  9
$PUCSYDIR
 10
0.0
 20
1.0
 30
0.0
  9
$PUCSORTHOREF
  2

  9
$PUCSORTHOVIEW
 70
0
  9
$PUCSORGTOP
 10
0.0
 20
0.0
 30
0.0
  9
$PUCSORGBOTTOM
 10
0.0
 20
0.0
 30
0.0
  9
$PUCSORGLEFT
 10
0.0
 20
0.0
 30
0.0
  9
$PUCSORGRIGHT
 10
0.0
 20
0.0
 30
0.0
  9
$PUCSORGFRONT
 10
0.0
 20
0.0
 30
0.0
  9
$PUCSORGBACK
 10
0.0
 20
0.0
 30
0.0
  9
$USERI1
 70
0
  9
$USERI2
 70
0
  9
$USERI3
 70
0
  9
$USERI4
 70
0
  9
$USERI5
 70
0
  9
$USERR1
 40
0.0
  9
$USERR2
 40
0.0
  9
$USERR3
 40
0.0
  9
$USERR4
 40
0.0
  9
$USERR5
 40
0.0
  9
$WORLDVIEW
 70
1
  9
$SHADEDGE
 70
3
  9
$SHADEDIF
 70
70
  9
$TILEMODE
 70
1
  9
$MAXACTVP
 70
64
  9
$PINSBASE
 10
0.0
 20
0.0
 30
0.0
  9
$PLIMCHECK
 70
0
  9
$PEXTMIN
 10
1e+20
 20
1e+20
 30
1e+20
  9
$PEXTMAX
 10
-1e+20
 20
-1e+20
 30
-1e+20
  9
$PLIMMIN
 10
0.0
 20
0.0
  9
$PLIMMAX
 10
420.0
 20
297.0
  9
$UNITMODE
 70
0
  9
$VISRETAIN
 70
1
  9
$PLINEGEN
 70
0
  9
$PSLTSCALE
 70
1
  9
$TREEDEPTH
 70
3020
  9
$CMLSTYLE
  2
Standard
  9
$CMLJUST
 70
0
  9
$CMLSCALE
 40
20.0
  9
$PROXYGRAPHICS
 70
1
  9
$MEASUREMENT
 70
1
  9
$CELWEIGHT
370
-1
  9
$ENDCAPS
280
0
  9
$JOINSTYLE
280
0
  9
$LWDISPLAY
290
0
  9
$INSUNITS
 70
6
  9
$HYPERLINKBASE
  1

  9
$STYLESHEET
  1

  9
$XEDIT
290
1
  9
$CEPSNTYPE
380
0
  9
$PSTYLEMODE
290
1
  9
$FINGERPRINTGUID
  2
{D60B45E3-C2B9-4EB9-9C19-C5A1E559F8F0}
  9
$VERSIONGUID
  2
{DB842514-0634-4880-83A3-9D396AD84C9C}
  9
$EXTNAMES
290
1
  9
$PSVPSCALE
 40
0.0
  9
$OLESTARTUP
290
0
  9
$SORTENTS
280
127
  9
$INDEXCTL
280
0
  9
$HIDETEXT
280
1
  9
$XCLIPFRAME
280
1
  9
$HALOGAP
280
0
  9
$OBSCOLOR
 70
257
  9
$OBSLTYPE
280
0
  9
$INTERSECTIONDISPLAY
280
0
  9
$INTERSECTIONCOLOR
 70
257
  9
$DIMASSOC
280
2
  9
$PROJECTNAME
  1

  9
$CAMERADISPLAY
290
0
  9
$LENSLENGTH
 40
50.0
  9
$CAMERAHEIGHT
 40
0.0
  9
$STEPSPERSEC
 40
24.0
  9
$STEPSIZE
 40
100.0
  9
$3DDWFPREC
 40
2.0
  9
$PSOLWIDTH
 40
0.005
  9
$PSOLHEIGHT
 40
0.08
  9
$LOFTANG1
 40
1.570796326795
  9
$LOFTANG2
 40
1.570796326795
  9
$LOFTMAG1
 40
0.0
  9
$LOFTMAG2
 40
0.0
  9
$LOFTPARAM
 70
7
  9
$LOFTNORMALS
280
1
  9
$LATITUDE
 40
37.795
  9
$LONGITUDE
 40
-122.394
  9
$NORTHDIRECTION
 40
0.0
  9
$TIMEZONE
 70
-8000
  9
$LIGHTGLYPHDISPLAY
280
1
  9
$TILEMODELIGHTSYNCH
280
1
  9
$CMATERIAL
347
20
  9
$SOLIDHIST
280
0
  9
$SHOWHIST
280
1
  9
$DWFFRAME
280
2
  9
$DGNFRAME
280
2
  9
$REALWORLDSCALE
290
1
  9
$INTERFERECOLOR
 62
256
  9
$CSHADOW
280
0
  9
$SHADOWPLANELOCATION
 40
0.0
  0
ENDSEC
  0
SECTION
  2
CLASSES
  0
CLASS
  1
ACDBDICTIONARYWDFLT
  2
AcDbDictionaryWithDefault
  3
ObjectDBX Classes
 90
0
 91
0
280
0
281
0
  0
CLASS
  1
SUN
  2
AcDbSun
  3
SCENEOE
 90
1153
 91
0
280
0
281
0
  0
CLASS
  1
VISUALSTYLE
  2
AcDbVisualStyle
  3
ObjectDBX Classes
 90
4095
 91
0
280
0
281
0
  0
CLASS
  1
MATERIAL
  2
AcDbMaterial
  3
ObjectDBX Classes
 90
1153
 91
0
280
0
281
0
  0
CLASS
  1
SCALE
  2
AcDbScale
  3
ObjectDBX Classes
 90
1153
 91
0
280
0
281
0
  0
CLASS
  1
TABLESTYLE
  2
AcDbTableStyle
  3
ObjectDBX Classes
 90
4095
 91
0
280
0
281
0
  0
CLASS
  1
MLEADERSTYLE
  2
AcDbMLeaderStyle
  3
ACDB_MLEADERSTYLE_CLASS
 90
4095
 91
0
280
0
281
0
  0
CLASS
  1
DICTIONARYVAR
  2
AcDbDictionaryVar
  3
ObjectDBX Classes
 90
0
 91
0
280
0
281
0
  0
CLASS
  1
CELLSTYLEMAP
  2
AcDbCellStyleMap
  3
ObjectDBX Classes
 90
1152
 91
0
280
0
281
0
  0
CLASS
  1
MENTALRAYRENDERSETTINGS
  2
AcDbMentalRayRenderSettings
  3
SCENEOE
 90
1024
 91
0
280
0
281
0
  0
CLASS
  1
ACDBDETAILVIEWSTYLE
  2
AcDbDetailViewStyle
  3
ObjectDBX Classes
 90
1025
 91
0
280
0
281
0
  0
CLASS
  1
ACDBSECTIONVIEWSTYLE
  2
AcDbSectionViewStyle
  3
ObjectDBX Classes
 90
1025
 91
0
280
0
281
0
  0
CLASS
  1
RASTERVARIABLES
  2
AcDbRasterVariables
  3
ISM
 90
0
 91
0
280
0
281
0
  0
CLASS
  1
LAYOUT
  2
AcDbLayout
  3
ObjectDBX Classes
 90
0
 91
0
280
0
281
0
  0
CLASS
  1
ACDBPLACEHOLDER
  2
AcDbPlaceHolder
  3
ObjectDBX Classes
 90
0
 91
0
280
0
281
0
  0
ENDSEC
  0
SECTION
  2
TABLES
  0
TABLE
  2
VPORT
  5
8
330
0
100
AcDbSymbolTable
 70
1
  0
VPORT
  5
23
330
8
100
AcDbSymbolTableRecord
100
AcDbViewportTableRecord
  2
*Active
 70
0
 10
0.0
 20
0.0
 11
1.0
 21
1.0
 12
0.0
 22
0.0
 13
0.0
 23
0.0
 14
0.5
 24
0.5
 15
0.5
 25
0.5
 16
0.0
 26
0.0
 36
1.0
 17
0.0
 27
0.0
 37
0.0
 40
1000.0
 41
1.34
 42
50.0
 43
0.0
 44
0.0
 50
0.0
 51
0.0
 71
0
 72
1000
 73
1
 74
3
 75
0
 76
0
 77
0
 78
0
281
0
 65
0
146
0.0
  0
ENDTAB
  0
TABLE
  2
LTYPE
  5
2
330
0
100
AcDbSymbolTable
 70
3
  0
LTYPE
  5
24
330
2
100
AcDbSymbolTableRecord
100
AcDbLinetypeTableRecord
  2
ByBlock
 70
0
  3

 72
65
 73
0
 40
0.0
  0
LTYPE
  5
25
330
2
100
AcDbSymbolTableRecord
100
AcDbLinetypeTableRecord
  2
ByLayer
 70
0
  3

 72
65
 73
0
 40
0.0
  0
LTYPE
  5
26
330
2
100
AcDbSymbolTableRecord
100
AcDbLinetypeTableRecord
  2
Continuous
 70
0
  3

 72
65
 73
0
 40
0.0
  0
ENDTAB
  0
TABLE
  2
LAYER
  5
1
330
0
100
AcDbSymbolTable
 70
4
  0
LAYER
  5
27
330
1
100
AcDbSymbolTableRecord
100
AcDbLayerTableRecord
  2
0
 70
0
 62
7
  6
Continuous
370
-3
390
13
347
21
  0
LAYER
  5
28
330
1
100
AcDbSymbolTableRecord
100
AcDbLayerTableRecord
  2
Defpoints
 70
0
 62
7
  6
Continuous
290
0
370
-3
390
13
347
21
  0
LAYER
  5
2F
330
1
100
AcDbSymbolTableRecord
100
AcDbLayerTableRecord
  2
UNIT_CELL_BOUND
 70
0
 62
7
  6
Continuous
370
-3
390
13
347
21
  0
LAYER
  5
30
330
1
100
AcDbSymbolTableRecord
100
AcDbLayerTableRecord
  2
CONDUCTIVE_PATCHES
 70
0
 62
1
  6
Continuous
370
-3
390
13
347
21
  0
ENDTAB
  0
TABLE
  2
STYLE
  5
5
330
0
100
AcDbSymbolTable
 70
1
  0
STYLE
  5
29
330
5
100
AcDbSymbolTableRecord
100
AcDbTextStyleTableRecord
  2
Standard
 70
0
 40
0.0
 41
1.0
 50
0.0
 71
0
 42
2.5
  3
txt
  4

  0
ENDTAB
  0
TABLE
  2
VIEW
  5
7
330
0
100
AcDbSymbolTable
 70
0
  0
ENDTAB
  0
TABLE
  2
UCS
  5
6
330
0
100
AcDbSymbolTable
 70
0
  0
ENDTAB
  0
TABLE
  2
APPID
  5
3
330
0
100
AcDbSymbolTable
 70
3
  0
APPID
  5
2A
330
3
100
AcDbSymbolTableRecord
100
AcDbRegAppTableRecord
  2
ACAD
 70
0
  0
APPID
  5
57
330
3
100
AcDbSymbolTableRecord
100
AcDbRegAppTableRecord
  2
HATCHBACKGROUNDCOLOR
 70
0
  0
APPID
  5
58
330
3
100
AcDbSymbolTableRecord
100
AcDbRegAppTableRecord
  2
EZDXF
 70
0
  0
ENDTAB
  0
TABLE
  2
DIMSTYLE
  5
4
330
0
100
AcDbSymbolTable
 70
1
100
AcDbDimStyleTable
  0
DIMSTYLE
105
2B
330
4
100
AcDbSymbolTableRecord
100
AcDbDimStyleTableRecord
  2
Standard
 70
0
 40
1.0
 41
2.5
 42
0.625
 43
3.75
 44
1.25
 45
0.0
 46
0.0
 47
0.0
 48
0.0
 49
2.5
140
2.5
141
2.5
142
0.0
143
0.03937007874
144
1.0
145
0.0
146
1.0
147
0.625
148
0.0
 69
0
 70
0
 71
0
 72
0
 73
0
 74
0
 75
0
 76
0
 77
1
 78
8
 79
3
170
0
171
3
172
1
173
0
174
0
175
0
176
0
177
0
178
0
179
2
271
2
272
2
273
2
274
3
275
0
276
0
277
2
278
44
279
0
280
0
281
0
282
0
283
0
284
8
285
0
286
0
288
0
289
3
290
0
371
-2
372
-2
  0
ENDTAB
  0
TABLE
  2
BLOCK_RECORD
  5
9
330
0
100
AcDbSymbolTable
 70
2
  0
BLOCK_RECORD
  5
17
330
9
100
AcDbSymbolTableRecord
100
AcDbBlockTableRecord
  2
*Model_Space
340
1A
 70
0
280
1
281
0
  0
BLOCK_RECORD
  5
1B
330
9
100
AcDbSymbolTableRecord
100
AcDbBlockTableRecord
  2
*Paper_Space
340
1E
 70
0
280
1
281
0
  0
ENDTAB
  0
ENDSEC
  0
SECTION
  2
BLOCKS
  0
BLOCK
  5
18
330
17
100
AcDbEntity
  8
0
100
AcDbBlockBegin
  2
*Model_Space
 70
0
 10
0.0
 20
0.0
 30
0.0
  3
*Model_Space
  1

  0
ENDBLK
  5
19
330
17
100
AcDbEntity
  8
0
100
AcDbBlockEnd
  0
BLOCK
  5
1C
330
1B
100
AcDbEntity
  8
0
100
AcDbBlockBegin
  2
*Paper_Space
 70
0
 10
0.0
 20
0.0
 30
0.0
  3
*Paper_Space
  1

  0
ENDBLK
  5
1D
330
1B
100
AcDbEntity
  8
0
100
AcDbBlockEnd
  0
ENDSEC
  0
SECTION
  2
ENTITIES
  0
LWPOLYLINE
  5
31
330
17
100
AcDbEntity
  8
UNIT_CELL_BOUND
100
AcDbPolyline
 90
5
 70
0
 10
-2.8575
 20
-2.54
 10
2.8575
 20
-2.54
 10
2.8575
 20
2.54
 10
-2.8575
 20
2.54
 10
-2.8575
 20
-2.54
  0
LWPOLYLINE
  5
32
330
17
100
AcDbEntity
  8
CONDUCTIVE_PATCHES
100
AcDbPolyline
 90
5
 70
0
 10
-1.6013511293471239
 20
2.5003125
 10
-1.60734375
 20
2.5102313538596093
 10
-1.641015228926443
 20
2.5003125
 10
-1.60734375
 20
2.4927701844618984
 10
-1.6013511293471239
 20
2.5003125
  0
LWPOLYLINE
  5
33
330
17
100
AcDbEntity
  8
CONDUCTIVE_PATCHES
100
AcDbPolyline
 90
5
 70
0
 10
1.595939315095135
 20
2.5003125
 10
1.5626953125
 20
2.51002358262469
 10
1.556840949090781
 20
2.5003125
 10
1.5626953125
 20
2.492968823954897
 10
1.595939315095135
 20
2.5003125
  0
LWPOLYLINE
  5
34
330
17
100
AcDbEntity
  8
CONDUCTIVE_PATCHES
100
AcDbPolyline
 90
13
 70
0
 10
-2.2555174571280787
 20
1.984375
 10
-2.232421875
 20
2.0048694299863725
 10
-2.224599340338515
 20
2.0240625
 10
-2.232421875
 20
2.0457971126384993
 10
-2.2688182715247343
 20
2.06375
 10
-2.2770703125
 20
2.065523043208767
 10
-2.2892904806217564
 20
2.06375
 10
-2.32171875
 20
2.034837923214109
 10
-2.3236904978524917
 20
2.0240625
 10
-2.32171875
 20
2.0169224048594088
 10
-2.3012400079300543
 20
1.984375
 10
-2.2770703125
 20
1.9774674483297767
 10
-2.2555174571280787
 20
1.984375
  0
LWPOLYLINE
  5
35
330
17
100
AcDbEntity
  8
CONDUCTIVE_PATCHES
100
AcDbPolyline
 90
217
 70
0
 10
-2.237821122138969
 20
0.47625
 10
-2.232421875
 20
0.4832618572181285
 10
-2.200554763216688
 20
0.5159375
 10
-2.206815367934098
 20
0.555625
 10
-2.19808548894375
 20
0.5953125
 10
-2.1877734374999998
 20
0.6138011673130834
 10
-2.143125
 20
0.6283586740662379
 10
-2.1220656500413297
 20
0.635
 10
-2.0984765625
 20
0.6453740718409278
 10
-2.053828125
 20
0.6513685803820468
 10
-2.0091796875
 20
0.6507293779423863
 10
-1.966396453794751
 20
0.635
 10
-1.9645312499999998
 20
0.6344600112626912
 10
-1.9198828125
 20
0.6268851795926084
 10
-1.8951367123478835
 20
0.635
 10
-1.875234375
 20
0.6560538826894531
 10
-1.8621307168995926
 20
0.6746875
 10
-1.8489730858415718
 20
0.714375
 10
-1.8305859375
 20
0.7305292479695858
 10
-1.7969861116215464
 20
0.714375
 10
-1.7859375
 20
0.7083442348763984
 10
-1.7768292656820457
 20
0.714375
 10
-1.7412890625
 20
0.7416860348550193
 10
-1.7289671844931105
 20
0.7540625
 10
-1.7412890625
 20
0.7820735966379212
 10
-1.7456611087766254
 20
0.79375
 10
-1.7512634804791483
 20
0.8334375
 10
-1.7736393170795914
 20
0.873125
 10
-1.7859375
 20
0.9038209229893811
 10
-1.7886463789846112
 20
0.9128125
 10
-1.7962458019103258
 20
0.9525
 10
-1.7859375
 20
0.9687944603439659
 10
-1.7412890625
 20
0.9811135568531847
 10
-1.696640625
 20
0.9634404892403658
 10
-1.6930930231829182
 20
0.9525
 10
-1.678084705537855
 20
0.9128125
 10
-1.6519921874999999
 20
0.8887125602153997
 10
-1.60734375
 20
0.8955200733275852
 10
-1.5626953125
 20
0.8970021072875028
 10
-1.518046875
 20
0.8982024319115743
 10
-1.4980072781453075
 20
0.9128125
 10
-1.4804291834370835
 20
0.9525
 10
-1.4733984375
 20
0.9660752683770344
 10
-1.4398147863040192
 20
0.9921875
 10
-1.42875
 20
1.0304222741544389
 10
-1.4284203613258544
 20
1.031875
 10
-1.4153578623898257
 20
1.0715625
 10
-1.3841015625
 20
1.1099278107659418
 10
-1.3784569051548443
 20
1.11125
 10
-1.339453125
 20
1.1242815349273454
 10
-1.3240933933569197
 20
1.1509375
 10
-1.2948046874999999
 20
1.1771349401166233
 10
-1.265358478552277
 20
1.190625
 10
-1.2501562499999999
 20
1.2285477711122879
 10
-1.249663475641115
 20
1.2303125
 10
-1.2055078125
 20
1.2585493434918003
 10
-1.1611836253348102
 20
1.27
 10
-1.160859375
 20
1.2703200150367175
 10
-1.1162109375
 20
1.2802552620615812
 10
-1.087063682621436
 20
1.3096875000000001
 10
-1.0715625
 20
1.3160099902594238
 10
-1.0269140625
 20
1.3315020797667405
 10
-1.010430891616124
 20
1.349375
 10
-1.0091245228984855
 20
1.3890625
 10
-1.0071729482085934
 20
1.42875
 10
-0.9992245237938225
 20
1.4684375
 10
-1.0269140625
 20
1.4918852011077286
 10
-1.0715625
 20
1.5053911620005307
 10
-1.0821617963669974
 20
1.508125
 10
-1.103433812063277
 20
1.5478125
 10
-1.089717573871515
 20
1.5875
 10
-1.0715625
 20
1.5966121559319275
 10
-1.0269140625
 20
1.5898129317035536
 10
-1.0171795799730838
 20
1.5875
 10
-0.9822656249999999
 20
1.5764708878882125
 10
-0.9376171875
 20
1.5565756630009118
 10
-0.89296875
 20
1.5516891149415917
 10
-0.8798713050224655
 20
1.5478125
 10
-0.8483203125
 20
1.5368376633167053
 10
-0.8343809008934122
 20
1.5478125
 10
-0.803671875
 20
1.5792887704339935
 10
-0.7967432026642154
 20
1.5875
 10
-0.803671875
 20
1.5975456080171302
 10
-0.8216515918311255
 20
1.6271875
 10
-0.803671875
 20
1.6433490920516807
 10
-0.7590234375
 20
1.6550661162163194
 10
-0.7377077161608875
 20
1.666875
 10
-0.714375
 20
1.6841590283478471
 10
-0.705028438078729
 20
1.7065625
 10
-0.7132816513064937
 20
1.74625
 10
-0.714375
 20
1.7492475001361152
 10
-0.7315115996401708
 20
1.7859375
 10
-0.7322386139341079
 20
1.825625
 10
-0.7252756614545876
 20
1.8653125
 10
-0.714375
 20
1.8850157068306954
 10
-0.7064779543787203
 20
1.905
 10
-0.6897043006876796
 20
1.9446875000000001
 10
-0.6697265625
 20
1.9534427456386967
 10
-0.6250781249999999
 20
1.9610619174701127
 10
-0.5804296875
 20
1.9550650878756495
 10
-0.542934237821387
 20
1.984375
 10
-0.53578125
 20
1.988780273245513
 10
-0.5150916043010634
 20
2.0240625
 10
-0.5213174069729878
 20
2.06375
 10
-0.53578125
 20
2.08003781757474
 10
-0.5804296875
 20
2.085843027273821
 10
-0.6250781249999999
 20
2.0809806107235906
 10
-0.6697265625
 20
2.069547691506603
 10
-0.6744582285636466
 20
2.06375
 10
-0.714375
 20
2.028788605894491
 10
-0.7590234375
 20
2.0274528390734585
 10
-0.7637158038963783
 20
2.0240625
 10
-0.7590234375
 20
2.0024565031891077
 10
-0.7539500613465134
 20
1.984375
 10
-0.7590234375
 20
1.9775966012534762
 10
-0.803671875
 20
1.9613627895977845
 10
-0.8483203125
 20
1.9674491197662771
 10
-0.8911660130150317
 20
1.984375
 10
-0.89296875
 20
1.9862929397251698
 10
-0.9376171875
 20
1.9969055459588316
 10
-0.97002618504872
 20
1.984375
 10
-0.9822656249999999
 20
1.977585356013979
 10
-1.0269140625
 20
1.951635188445057
 10
-1.0362945185239676
 20
1.9446875000000001
 10
-1.0483276410479616
 20
1.905
 10
-1.0715625
 20
1.8670570194017517
 10
-1.072229500619476
 20
1.8653125
 10
-1.075927407946195
 20
1.825625
 10
-1.0715625
 20
1.8074250628562474
 10
-1.067638318334332
 20
1.7859375
 10
-1.0715625
 20
1.7792890934720214
 10
-1.0933191955843344
 20
1.74625
 10
-1.1162109375
 20
1.7253293528538938
 10
-1.160859375
 20
1.7224709721235745
 10
-1.2055078125
 20
1.740026687181691
 10
-1.2501562499999999
 20
1.7424550417945313
 10
-1.2948046874999999
 20
1.7328002447959667
 10
-1.339453125
 20
1.7147243172626094
 10
-1.3457268998021417
 20
1.7065625
 10
-1.368528585337814
 20
1.666875
 10
-1.339453125
 20
1.6273989716159123
 10
-1.3392689877076642
 20
1.6271875
 10
-1.2948046874999999
 20
1.5978219359287487
 10
-1.2501562499999999
 20
1.608217464341443
 10
-1.2055078125
 20
1.6168004225168162
 10
-1.1834416576889104
 20
1.5875
 10
-1.2055078125
 20
1.5520940130628944
 10
-1.2501562499999999
 20
1.5528039669794889
 10
-1.2544463761604978
 20
1.5478125
 10
-1.2776987144445608
 20
1.508125
 10
-1.2849918340668307
 20
1.4684375
 10
-1.2948046874999999
 20
1.4576822534462963
 10
-1.339453125
 20
1.432038765103152
 10
-1.3420017310898427
 20
1.42875
 10
-1.3841015625
 20
1.407632484653923
 10
-1.42875
 20
1.3999948104304896
 10
-1.4733984375
 20
1.3958986850579107
 10
-1.518046875
 20
1.3907189512984726
 10
-1.5284271757129462
 20
1.3890625
 10
-1.5626953125
 20
1.3572792953684651
 10
-1.5642315979657035
 20
1.349375
 10
-1.5698489232538821
 20
1.3096875000000001
 10
-1.5747469365167186
 20
1.27
 10
-1.5835333765245068
 20
1.2303125
 10
-1.60734375
 20
1.1930860387541649
 10
-1.6114014416032543
 20
1.190625
 10
-1.640109604275777
 20
1.1509375
 10
-1.6519921874999999
 20
1.142243174968518
 10
-1.696640625
 20
1.1355760241924993
 10
-1.7412890625
 20
1.114860596819554
 10
-1.7466924874577041
 20
1.11125
 10
-1.745883588837625
 20
1.0715625
 10
-1.7859375
 20
1.0520614876751466
 10
-1.8181112004688647
 20
1.0715625
 10
-1.8088500981937543
 20
1.11125
 10
-1.7974130305434026
 20
1.1509375
 10
-1.8304344375204007
 20
1.190625
 10
-1.8305859375
 20
1.1907661940539234
 10
-1.875234375
 20
1.2168320991761128
 10
-1.9198828125
 20
1.19639333954932
 10
-1.929342763891551
 20
1.190625
 10
-1.9495534062778355
 20
1.1509375
 10
-1.9608226320363733
 20
1.11125
 10
-1.9589823386992438
 20
1.0715625
 10
-1.9385063887198428
 20
1.031875
 10
-1.941479304439743
 20
0.9921875
 10
-1.9645312499999998
 20
0.9721404244925305
 10
-2.0018465716765412
 20
0.9525
 10
-2.0091796875
 20
0.9490720156802224
 10
-2.0325002275802815
 20
0.9525
 10
-2.053828125
 20
0.9566337297172721
 10
-2.0984765625
 20
0.9534351177293201
 10
-2.101589435367856
 20
0.9525
 10
-2.143125
 20
0.9324749924284571
 10
-2.1877734374999998
 20
0.9217025869173265
 10
-2.196084403499343
 20
0.9128125
 10
-2.2250576547589023
 20
0.873125
 10
-2.232421875
 20
0.8626011869938416
 10
-2.246805084207506
 20
0.8334375
 10
-2.234865443689014
 20
0.79375
 10
-2.232421875
 20
0.7919486718605975
 10
-2.2134385875630795
 20
0.7540625
 10
-2.206539563046533
 20
0.714375
 10
-2.2246608355101722
 20
0.6746875
 10
-2.232421875
 20
0.6701001049500771
 10
-2.252711390005106
 20
0.6746875
 10
-2.2770703125
 20
0.6789482510558061
 10
-2.2809476462982796
 20
0.6746875
 10
-2.282302852702446
 20
0.635
 10
-2.32171875
 20
0.5993510346982966
 10
-2.32793741384078
 20
0.5953125
 10
-2.340679168426751
 20
0.555625
 10
-2.345983133901027
 20
0.5159375
 10
-2.339823389953901
 20
0.47625
 10
-2.32171875
 20
0.4634133156219663
 10
-2.2770703125
 20
0.4578347971797941
 10
-2.237821122138969
 20
0.47625
  0
LWPOLYLINE
  5
36
330
17
100
AcDbEntity
  8
CONDUCTIVE_PATCHES
100
AcDbPolyline
 90
217
 70
0
 10
2.2953940381139
 20
0.47625
 10
2.301924887779127
 20
0.5159375
 10
2.2964546810370727
 20
0.555625
 10
2.283592634876467
 20
0.5953125
 10
2.2770703125
 20
0.5995183767732477
 10
2.237738749394094
 20
0.635
 10
2.2362360468432962
 20
0.6746875
 10
2.232421875
 20
0.6788585432647793
 10
2.2081146674307757
 20
0.6746875
 10
2.1877734374999998
 20
0.6701779534626797
 10
2.180147951434225
 20
0.6746875
 10
2.1618847645175925
 20
0.714375
 10
2.168731888320561
 20
0.7540625
 10
2.1877734374999998
 20
0.7921474145243153
 10
2.189931323923097
 20
0.79375
 10
2.2018704089225007
 20
0.8334375
 10
2.1877734374999998
 20
0.8622457206574683
 10
2.1801352267187313
 20
0.873125
 10
2.1509412382469506
 20
0.9128125
 10
2.143125
 20
0.921150762280259
 10
2.0984765625
 20
0.9318468641686616
 10
2.0557908530435687
 20
0.9525
 10
2.053828125
 20
0.9530929323588256
 10
2.0091796875
 20
0.9563800039182205
 10
1.9887043705996124
 20
0.9525
 10
1.9645312499999998
 20
0.9490118851797668
 10
1.9570518844817453
 20
0.9525
 10
1.9198828125
 20
0.9718393171563315
 10
1.8963471055865901
 20
0.9921875
 10
1.8931314381907969
 20
1.031875
 10
1.9128816964749327
 20
1.0715625
 10
1.915613475155287
 20
1.11125
 10
1.9047518053006285
 20
1.1509375
 10
1.884416342883861
 20
1.190625
 10
1.875234375
 20
1.196201631343678
 10
1.8305859375
 20
1.2164698024658283
 10
1.7861755361957226
 20
1.190625
 10
1.7859375
 20
1.190461232594391
 10
1.7529012576576648
 20
1.1509375
 10
1.7645962177310774
 20
1.11125
 10
1.7742520199945109
 20
1.0715625
 10
1.7412890625
 20
1.0519481556684493
 10
1.7014573085291245
 20
1.0715625
 10
1.7022559705090152
 20
1.11125
 10
1.696640625
 20
1.1150634028817614
 10
1.6519921874999999
 20
1.1357322053224617
 10
1.60734375
 20
1.1422149464626195
 10
1.5952440436671822
 20
1.1509375
 10
1.5663951269805614
 20
1.190625
 10
1.5626953125
 20
1.192890405473659
 10
1.538938118101317
 20
1.2303125
 10
1.530345795339575
 20
1.27
 10
1.52573761719678
 20
1.3096875000000001
 10
1.5199104130016519
 20
1.349375
 10
1.518046875
 20
1.358602129859213
 10
1.4822908966671493
 20
1.3890625
 10
1.4733984375
 20
1.3904280980593693
 10
1.42875
 20
1.3954213081485796
 10
1.3841015625
 20
1.3997751120430177
 10
1.339453125
 20
1.407585297150409
 10
1.2975735176037517
 20
1.42875
 10
1.2948046874999999
 20
1.432357045049435
 10
1.2501562499999999
 20
1.4578753267248017
 10
1.2403752363289784
 20
1.4684375
 10
1.232874636016417
 20
1.508125
 10
1.20956981650072
 20
1.5478125
 10
1.2055078125
 20
1.5526156300158154
 10
1.160859375
 20
1.5518966572419466
 10
1.1389207833925392
 20
1.5875
 10
1.160859375
 20
1.6160988304595365
 10
1.2055078125
 20
1.6078667249543648
 10
1.2501562499999999
 20
1.5977004340538334
 10
1.2948046874999999
 20
1.6270527754411501
 10
1.2949635988487118
 20
1.6271875
 10
1.324287722584474
 20
1.666875
 10
1.3012941084499008
 20
1.7065625
 10
1.2948046874999999
 20
1.7149714012470152
 10
1.2501562499999999
 20
1.7329363677820224
 10
1.2055078125
 20
1.7429534506989985
 10
1.160859375
 20
1.7413176683152278
 10
1.1162109375
 20
1.7231167919502093
 10
1.0715625
 20
1.7257594056794787
 10
1.0490095825546832
 20
1.74625
 10
1.0269140625
 20
1.7794191957570886
 10
1.023057584951421
 20
1.7859375
 10
1.0269140625
 20
1.806666859778939
 10
1.0315645094140864
 20
1.825625
 10
1.027966104787985
 20
1.8653125
 10
1.0269140625
 20
1.8680795882591048
 10
1.0043859928145298
 20
1.905
 10
0.9922670380007759
 20
1.9446875000000001
 10
0.9822656249999999
 20
1.9520750662182424
 10
0.9376171875
 20
1.977829035210005
 10
0.9257779233327019
 20
1.984375
 10
0.89296875
 20
1.9971601363837859
 10
0.8483203125
 20
1.9865471104607706
 10
0.8462937738843458
 20
1.984375
 10
0.803671875
 20
1.967500999055316
 10
0.7590234375
 20
1.9613685771286267
 10
0.714375
 20
1.9774764104666995
 10
0.7092142444213142
 20
1.984375
 10
0.714375
 20
2.002409713694317
 10
0.719168478155031
 20
2.0240625
 10
0.714375
 20
2.0275091142044186
 10
0.6697265625
 20
2.0287137010415
 10
0.6296215818898314
 20
2.06375
 10
0.6250781249999999
 20
2.069277827253294
 10
0.5804296875
 20
2.080603765755839
 10
0.53578125
 20
2.0853184252022507
 10
0.49113281249999996
 20
2.079843060960211
 10
0.4766915008702401
 20
2.06375
 10
0.4704156940852123
 20
2.0240625
 10
0.49113281249999996
 20
1.9891743309604233
 10
0.49902115742442427
 20
1.984375
 10
0.53578125
 20
1.956048648767862
 10
0.5804296875
 20
1.961613692526879
 10
0.6250781249999999
 20
1.953853773771496
 10
0.6458778865234944
 20
1.9446875000000001
 10
0.6622551112075437
 20
1.905
 10
0.6697265625
 20
1.8862806965378944
 10
0.6813974338989429
 20
1.8653125
 10
0.6881412619032945
 20
1.825625
 10
0.6874221472929948
 20
1.7859375
 10
0.6697265625
 20
1.7479078374848789
 10
0.6691191187417669
 20
1.74625
 10
0.6605974119034413
 20
1.7065625
 10
0.6697265625
 20
1.6845660304226937
 10
0.6934122601397675
 20
1.666875
 10
0.714375
 20
1.6552273394374741
 10
0.7590234375
 20
1.64353165143118
 10
0.7771969927559591
 20
1.6271875
 10
0.7590234375
 20
1.5973209158066715
 10
0.7522388887112167
 20
1.5875
 10
0.7590234375
 20
1.5794038625964082
 10
0.7897484240355338
 20
1.5478125
 10
0.803671875
 20
1.536859780856732
 10
0.8351842151517761
 20
1.5478125
 10
0.8483203125
 20
1.5516988042122355
 10
0.89296875
 20
1.556678645351695
 10
0.9376171875
 20
1.5765682747115486
 10
0.9721501551262015
 20
1.5875
 10
0.9822656249999999
 20
1.5899078750549138
 10
1.0269140625
 20
1.5966629184573162
 10
1.0452453001428141
 20
1.5875
 10
1.0591042613333155
 20
1.5478125
 10
1.0392220244999504
 20
1.508125
 10
1.0269140625
 20
1.5049715968575557
 10
0.9822656249999999
 20
1.491630860802161
 10
0.9551531853247566
 20
1.4684375
 10
0.9628116379819016
 20
1.42875
 10
0.9644789268195029
 20
1.3890625
 10
0.9658293055103856
 20
1.349375
 10
0.9822656249999999
 20
1.331562037334615
 10
1.0269140625
 20
1.3159370787833495
 10
1.0421862866202916
 20
1.3096875000000001
 10
1.0715625
 20
1.2798353398365963
 10
1.1145766660574974
 20
1.27
 10
1.1162109375
 20
1.2697069973119104
 10
1.160859375
 20
1.2580958190706364
 10
1.204020350508976
 20
1.2303125
 10
1.2055078125
 20
1.225295048784878
 10
1.2201683395115572
 20
1.190625
 10
1.2501562499999999
 20
1.1769719212018763
 10
1.2796283220236402
 20
1.1509375
 10
1.2948046874999999
 20
1.124762904606557
 10
1.3374675056977134
 20
1.11125
 10
1.339453125
 20
1.1108119164957106
 10
1.371219513829564
 20
1.0715625
 10
1.3841015625
 20
1.032163072712626
 10
1.3844613959093441
 20
1.031875
 10
1.3956388000612032
 20
0.9921875
 10
1.42875
 20
0.9662789436119393
 10
1.4358628654445127
 20
0.9525
 10
1.4532914760417213
 20
0.9128125
 10
1.4733984375
 20
0.8981608511544864
 10
1.518046875
 20
0.8969996210564467
 10
1.5626953125
 20
0.8952649059682319
 10
1.60734375
 20
0.888199629966411
 10
1.633722430918343
 20
0.9128125
 10
1.6489166204305836
 20
0.9525
 10
1.6519921874999999
 20
0.9619215575565753
 10
1.696640625
 20
0.980830060182046
 10
1.7412890625
 20
0.9686378104941538
 10
1.7515402204569783
 20
0.9525
 10
1.743891090069497
 20
0.9128125
 10
1.7412890625
 20
0.9041596725971146
 10
1.7288813305828374
 20
0.873125
 10
1.7064992001908492
 20
0.8334375
 10
1.701001821703742
 20
0.79375
 10
1.696640625
 20
0.7821077922742192
 10
1.6842939613003989
 20
0.7540625
 10
1.696640625
 20
0.7416719556115114
 10
1.7320515208533518
 20
0.714375
 10
1.7412890625
 20
0.7082162396570623
 10
1.7525902689660262
 20
0.714375
 10
1.7859375
 20
0.730356997806418
 10
1.8041193374375197
 20
0.714375
 10
1.8173009828918456
 20
0.6746875
 10
1.8305859375
 20
0.6557402540074846
 10
1.8500305237655243
 20
0.635
 10
1.875234375
 20
0.6266919587984149
 10
1.9198828125
 20
0.6340281443500181
 10
1.9232549702317552
 20
0.635
 10
1.9645312499999998
 20
0.6502325327896729
 10
2.0091796875
 20
0.6508787611010087
 10
2.053828125
 20
0.6446894589527308
 10
2.0759942457008385
 20
0.635
 10
2.0984765625
 20
0.62798042132486
 10
2.143125
 20
0.613070509251745
 10
2.1529746881668954
 20
0.5953125
 10
2.1615462895341917
 20
0.555625
 10
2.1547998655418423
 20
0.5159375
 10
2.1877734374999998
 20
0.4826082647135902
 10
2.1927294150836394
 20
0.47625
 10
2.232421875
 20
0.4578592318340299
 10
2.2770703125
 20
0.463393293271887
 10
2.2953940381139
 20
0.47625
  0
LWPOLYLINE
  5
37
330
17
100
AcDbEntity
  8
CONDUCTIVE_PATCHES
100
AcDbPolyline
 90
13
 70
0
 10
2.2568731752021005
 20
1.984375
 10
2.2770703125
 20
2.016727519680669
 10
2.2790649445383484
 20
2.0240625
 10
2.2770703125
 20
2.034924683037994
 10
2.244544198214151
 20
2.06375
 10
2.232421875
 20
2.0655026626687967
 10
2.2243892602893123
 20
2.06375
 10
2.1877734374999998
 20
2.0455466930326307
 10
2.1800024464719856
 20
2.0240625
 10
2.1877734374999998
 20
2.0049044517689243
 10
2.21082979089963
 20
1.984375
 10
2.232421875
 20
1.9774216765605415
 10
2.2568731752021005
 20
1.984375
  0
LWPOLYLINE
  5
38
330
17
100
AcDbEntity
  8
CONDUCTIVE_PATCHES
100
AcDbPolyline
 90
5
 70
0
 10
-2.8045899591207877
 20
1.42875
 10
-2.8128515625
 20
1.4583000610620054
 10
-2.8237764818478253
 20
1.42875
 10
-2.8128515625
 20
1.423546149068661
 10
-2.8045899591207877
 20
1.42875
  0
LWPOLYLINE
  5
39
330
17
100
AcDbEntity
  8
CONDUCTIVE_PATCHES
100
AcDbPolyline
 90
5
 70
0
 10
2.77936176327753
 20
1.42875
 10
2.768203125
 20
1.4586801436134533
 10
2.759718075007743
 20
1.42875
 10
2.768203125
 20
1.4234232660121582
 10
2.77936176327753
 20
1.42875
  0
LWPOLYLINE
  5
3A
330
17
100
AcDbEntity
  8
CONDUCTIVE_PATCHES
100
AcDbPolyline
 90
5
 70
0
 10
-1.518046875
 20
1.3257979374445321
 10
-1.5603307069769212
 20
1.349375
 10
-1.518046875
 20
1.3865316037686433
 10
-1.4917531175657417
 20
1.349375
 10
-1.518046875
 20
1.3257979374445321
  0
LWPOLYLINE
  5
3B
330
17
100
AcDbEntity
  8
CONDUCTIVE_PATCHES
100
AcDbPolyline
 90
5
 70
0
 10
1.4733984375
 20
1.3260028079442936
 10
1.4468742687098957
 20
1.349375
 10
1.4733984375
 20
1.3869606130469934
 10
1.5151995699041347
 20
1.349375
 10
1.4733984375
 20
1.3260028079442936
  0
LWPOLYLINE
  5
3C
330
17
100
AcDbEntity
  8
CONDUCTIVE_PATCHES
100
AcDbPolyline
 90
7
 70
0
 10
-1.2948046874999999
 20
1.2966562872165879
 10
-1.339453125
 20
1.3056062715374344
 10
-1.3434944077299678
 20
1.3096875000000001
 10
-1.339453125
 20
1.3147297955070871
 10
-1.2948046874999999
 20
1.3359166210101956
 10
-1.255733997850497
 20
1.3096875000000001
 10
-1.2948046874999999
 20
1.2966562872165879
  0
LWPOLYLINE
  5
3D
330
17
100
AcDbEntity
  8
CONDUCTIVE_PATCHES
100
AcDbPolyline
 90
7
 70
0
 10
1.2948046874999999
 20
1.3057745351276129
 10
1.2501562499999999
 20
1.2972342037669402
 10
1.2125799928415226
 20
1.3096875000000001
 10
1.2501562499999999
 20
1.3350447819281037
 10
1.2948046874999999
 20
1.314548154925249
 10
1.298734242594466
 20
1.3096875000000001
 10
1.2948046874999999
 20
1.3057745351276129
  0
LWPOLYLINE
  5
3E
330
17
100
AcDbEntity
  8
CONDUCTIVE_PATCHES
100
AcDbPolyline
 90
7
 70
0
 10
-1.4733984375
 20
1.1175361413489862
 10
-1.501925542696554
 20
1.1509375
 10
-1.4788669037713242
 20
1.190625
 10
-1.4733984375
 20
1.194118080287594
 10
-1.4689961697107121
 20
1.190625
 10
-1.4593883805797379
 20
1.1509375
 10
-1.4733984375
 20
1.1175361413489862
  0
LWPOLYLINE
  5
3F
330
17
100
AcDbEntity
  8
CONDUCTIVE_PATCHES
100
AcDbPolyline
 90
7
 70
0
 10
1.42875
 20
1.1162078689930572
 10
1.4140898200756138
 20
1.1509375
 10
1.4241585353830528
 20
1.190625
 10
1.42875
 20
1.1942173172573787
 10
1.4344227142938282
 20
1.190625
 10
1.4582580462413106
 20
1.1509375
 10
1.42875
 20
1.1162078689930572
  0
LWPOLYLINE
  5
40
330
17
100
AcDbEntity
  8
CONDUCTIVE_PATCHES
100
AcDbPolyline
 90
23
 70
0
 10
-0.5074456666477491
 20
0.5953125
 10
-0.49113281249999996
 20
0.6074450236132125
 10
-0.4593927056024627
 20
0.635
 10
-0.446484375
 20
0.6611154633136292
 10
-0.4419263758228848
 20
0.6746875
 10
-0.446484375
 20
0.6861693350842288
 10
-0.49113281249999996
 20
0.6921093877095534
 10
-0.5160343966079431
 20
0.714375
 10
-0.4978930454362127
 20
0.7540625
 10
-0.53578125
 20
0.7768842607228574
 10
-0.5804296875
 20
0.7631456150435785
 10
-0.5868686201795227
 20
0.7540625
 10
-0.5804296875
 20
0.7389043074943153
 10
-0.5567839028398327
 20
0.714375
 10
-0.53578125
 20
0.7008704154793843
 10
-0.5061916617752166
 20
0.6746875
 10
-0.531155848376134
 20
0.635
 10
-0.53578125
 20
0.6297901651041546
 10
-0.5804296875
 20
0.6092501887433723
 10
-0.5865718462251532
 20
0.5953125
 10
-0.5804296875
 20
0.5863600948518983
 10
-0.53578125
 20
0.5772205735454999
 10
-0.5074456666477491
 20
0.5953125
  0
LWPOLYLINE
  5
41
330
17
100
AcDbEntity
  8
CONDUCTIVE_PATCHES
100
AcDbPolyline
 90
23
 70
0
 10
0.5415865205345931
 20
0.5953125
 10
0.53578125
 20
0.6084109238492037
 10
0.49113281249999996
 20
0.6292601176214649
 10
0.4860777224838687
 20
0.635
 10
0.4611693667481299
 20
0.6746875
 10
0.49113281249999996
 20
0.7016336631625095
 10
0.5108828592906421
 20
0.714375
 10
0.53578125
 20
0.7401475740210192
 10
0.541678480731695
 20
0.7540625
 10
0.53578125
 20
0.7623898684703408
 10
0.49113281249999996
 20
0.7763591229091167
 10
0.4546249088207172
 20
0.7540625
 10
0.4727069132990821
 20
0.714375
 10
0.446484375
 20
0.6914118515014739
 10
0.4018359375
 20
0.6855511622852427
 10
0.39748943517754093
 20
0.6746875
 10
0.4018359375
 20
0.6616904541379955
 10
0.4150053788230642
 20
0.635
 10
0.446484375
 20
0.6075685785801511
 10
0.46308175367667725
 20
0.5953125
 10
0.49113281249999996
 20
0.5775233532915136
 10
0.53578125
 20
0.5868504503898934
 10
0.5415865205345931
 20
0.5953125
  0
LWPOLYLINE
  5
42
330
17
100
AcDbEntity
  8
CONDUCTIVE_PATCHES
100
AcDbPolyline
 90
23
 70
0
 10
-0.7444017117208166
 20
0.396875
 10
-0.714375
 20
0.4085811769694441
 10
-0.6835146154920196
 20
0.4365625
 10
-0.6697265625
 20
0.4513156781615736
 10
-0.6497137550493217
 20
0.47625
 10
-0.660206730091314
 20
0.5159375
 10
-0.6697265625
 20
0.5210977513953798
 10
-0.684462281228873
 20
0.5159375
 10
-0.7079175689456871
 20
0.47625
 10
-0.714375
 20
0.47175653538973483
 10
-0.7590234375
 20
0.44961582604198347
 10
-0.789337845544929
 20
0.47625
 10
-0.803671875
 20
0.4938056312997776
 10
-0.8326660904015952
 20
0.5159375
 10
-0.8483203125
 20
0.5211794446446345
 10
-0.8576885196263307
 20
0.5159375
 10
-0.8734039685093243
 20
0.47625
 10
-0.8483203125
 20
0.44379853482497694
 10
-0.803671875
 20
0.4598713706704917
 10
-0.7778383636004802
 20
0.4365625
 10
-0.7712451286278714
 20
0.396875
 10
-0.7590234375
 20
0.3930114239525184
 10
-0.7444017117208166
 20
0.396875
  0
LWPOLYLINE
  5
43
330
17
100
AcDbEntity
  8
CONDUCTIVE_PATCHES
100
AcDbPolyline
 90
23
 70
0
 10
0.7272921666347497
 20
0.396875
 10
0.7339747574842732
 20
0.4365625
 10
0.7590234375
 20
0.45869717910084395
 10
0.803671875
 20
0.44257162125515637
 10
0.829346327182539
 20
0.47625
 10
0.8138903417874942
 20
0.5159375
 10
0.803671875
 20
0.5216609830432665
 10
0.7866189051151525
 20
0.5159375
 10
0.7590234375
 20
0.4949190690031027
 10
0.7438307420904268
 20
0.47625
 10
0.714375
 20
0.4499482287501978
 10
0.6697265625
 20
0.47213852715191085
 10
0.6638655038796113
 20
0.47625
 10
0.6407580359426783
 20
0.5159375
 10
0.6250781249999999
 20
0.5213972060089689
 10
0.6150066552027768
 20
0.5159375
 10
0.6047246816469682
 20
0.47625
 10
0.6250781249999999
 20
0.45106278013545237
 10
0.6387272010448666
 20
0.4365625
 10
0.6697265625
 20
0.4083490820589703
 10
0.6991064019500256
 20
0.396875
 10
0.714375
 20
0.392823420836292
 10
0.7272921666347497
 20
0.396875
  0
LWPOLYLINE
  5
44
330
17
100
AcDbEntity
  8
CONDUCTIVE_PATCHES
100
AcDbPolyline
 90
17
 70
0
 10
0.08255435437880367
 20
-0.0396875
 10
0.0825757866185965
 20
0.0
 10
0.08256288869818755
 20
0.0396875
 10
0.0824909533769681
 20
0.079375
 10
0.0446484375
 20
0.11306914442998076
 10
0.0
 20
0.11308819209588306
 10
-0.0446484375
 20
0.11307675753098655
 10
-0.089296875
 20
0.11301280808285259
 10
-0.12720282547728937
 20
0.079375
 10
-0.12722424590132062
 20
0.0396875
 10
-0.127211346684957
 20
0.0
 10
-0.127139383144793
 20
-0.0396875
 10
-0.089296875
 20
-0.07338165334226486
 10
-0.0446484375
 20
-0.07340070476230902
 10
0.0
 20
-0.07338923122558091
 10
0.0446484375
 20
-0.07332526770296688
 10
0.08255435437880367
 20
-0.0396875
  0
LWPOLYLINE
  5
45
330
17
100
AcDbEntity
  8
CONDUCTIVE_PATCHES
100
AcDbPolyline
 90
23
 70
0
 10
-0.6596550578256773
 20
-0.47625
 10
-0.6493731134948025
 20
-0.4365625
 10
-0.6697265625
 20
-0.4113753195424127
 10
-0.6833756694419885
 20
-0.396875
 10
-0.714375
 20
-0.36866155020109326
 10
-0.7437547968476526
 20
-0.3571875
 10
-0.7590234375
 20
-0.3531359137287044
 10
-0.7719406091111571
 20
-0.3571875
 10
-0.7786231039350346
 20
-0.396875
 10
-0.803671875
 20
-0.4190097025380456
 10
-0.8483203125
 20
-0.4028841205929953
 10
-0.873994777602122
 20
-0.4365625
 10
-0.8585388308470125
 20
-0.47625
 10
-0.8483203125
 20
-0.4819735063989902
 10
-0.8312672661141227
 20
-0.47625
 10
-0.803671875
 20
-0.4552316068627595
 10
-0.7884791662436638
 20
-0.4365625
 10
-0.7590234375
 20
-0.41026068834606066
 10
-0.714375
 20
-0.43245105316744786
 10
-0.7085139721178665
 20
-0.4365625
 10
-0.6854065336908329
 20
-0.47625
 10
-0.6697265625
 20
-0.4817097171495329
 10
-0.6596550578256773
 20
-0.47625
  0
LWPOLYLINE
  5
46
330
17
100
AcDbEntity
  8
CONDUCTIVE_PATCHES
100
AcDbPolyline
 90
23
 70
0
 10
0.8130403248246002
 20
-0.47625
 10
0.8287557330864361
 20
-0.4365625
 10
0.803671875
 20
-0.40411085591347495
 10
0.7590234375
 20
-0.42018373889606
 10
0.7331900381726744
 20
-0.396875
 10
0.7265968947256796
 20
-0.3571875
 10
0.714375
 20
-0.35332386866996457
 10
0.6997531083973968
 20
-0.3571875
 10
0.6697265625
 20
-0.36889365748749614
 10
0.6388662047149807
 20
-0.396875
 10
0.6250781249999999
 20
-0.4116281802859798
 10
0.6050652947253345
 20
-0.4365625
 10
0.6155582187340125
 20
-0.47625
 10
0.6250781249999999
 20
-0.4814102933574811
 10
0.6398139845756793
 20
-0.47625
 10
0.6632692749051512
 20
-0.4365625
 10
0.6697265625
 20
-0.4320691286228511
 10
0.714375
 20
-0.40992844939103246
 10
0.7446892378775908
 20
-0.4365625
 10
0.7590234375
 20
-0.4541183579691798
 10
0.7880172679491001
 20
-0.47625
 10
0.803671875
 20
-0.48149207626403434
 10
0.8130403248246002
 20
-0.47625
  0
LWPOLYLINE
  5
47
330
17
100
AcDbEntity
  8
CONDUCTIVE_PATCHES
100
AcDbPolyline
 90
217
 70
0
 10
-0.5213399795648489
 20
-2.0240625
 10
-0.5150641810104436
 20
-1.984375
 10
-0.53578125
 20
-1.949486841587683
 10
-0.5436695913811478
 20
-1.9446875000000001
 10
-0.5804296875
 20
-1.9163611256033408
 10
-0.6250781249999999
 20
-1.9219261519572992
 10
-0.6697265625
 20
-1.9141662453368085
 10
-0.6905262606875163
 20
-1.905
 10
-0.7069034709786313
 20
-1.8653125
 10
-0.714375
 20
-1.846592982991902
 10
-0.7260457570185944
 20
-1.825625
 10
-0.7327896023107728
 20
-1.7859375
 10
-0.7320705124501078
 20
-1.74625
 10
-0.714375
 20
-1.7082204602617888
 10
-0.7137675122462867
 20
-1.7065625
 10
-0.705245832424518
 20
-1.666875
 10
-0.714375
 20
-1.6448784830212895
 10
-0.7380606148628357
 20
-1.6271875
 10
-0.7590234375
 20
-1.6155397949635844
 10
-0.803671875
 20
-1.6038441271127564
 10
-0.8218454110265595
 20
-1.5875
 10
-0.803671875
 20
-1.5576334750654968
 10
-0.7968872752999266
 20
-1.5478125
 10
-0.803671875
 20
-1.539716299777346
 10
-0.8343968095424407
 20
-1.508125
 10
-0.8483203125
 20
-1.4971722481343692
 10
-0.8798326978911711
 20
-1.508125
 10
-0.89296875
 20
-1.5120112976182605
 10
-0.9376171875
 20
-1.5169911638142566
 10
-0.9822656249999999
 20
-1.5368807791112358
 10
-1.0167985189507938
 20
-1.5478125
 10
-1.0269140625
 20
-1.5502203993485366
 10
-1.0715625
 20
-1.556975459659511
 10
-1.0898937687020704
 20
-1.5478125
 10
-1.103752710886335
 20
-1.508125
 10
-1.0838705343335626
 20
-1.4684375
 10
-1.0715625
 20
-1.465284070627279
 10
-1.0269140625
 20
-1.4519433254739542
 10
-0.9998016580648098
 20
-1.42875
 10
-1.0074601364292697
 20
-1.3890625
 10
-1.0091274044660756
 20
-1.349375
 10
-1.0104777809296634
 20
-1.3096875000000001
 10
-1.0269140625
 20
-1.2918745795826638
 10
-1.0715625
 20
-1.2762496083986758
 10
-1.0868347856424294
 20
-1.27
 10
-1.1162109375
 20
-1.240147844709358
 10
-1.159224970009515
 20
-1.2303125
 10
-1.160859375
 20
-1.2300194728622973
 10
-1.2055078125
 20
-1.2184083415826987
 10
-1.2486687838706074
 20
-1.190625
 10
-1.2501562499999999
 20
-1.1856075392375005
 10
-1.2648167761746887
 20
-1.1509375
 10
-1.2948046874999999
 20
-1.1372844187296856
 10
-1.3242767927794477
 20
-1.11125
 10
-1.339453125
 20
-1.0850755265420609
 10
-1.3821163752067418
 20
-1.0715625
 10
-1.3841015625
 20
-1.0711245110406389
 10
-1.4158680043189522
 20
-1.031875
 10
-1.42875
 20
-0.992475601499757
 10
-1.4291098648708505
 20
-0.9921875
 10
-1.4402871955209657
 20
-0.9525
 10
-1.4733984375
 20
-0.9265912951248598
 10
-1.480511218425215
 20
-0.9128125
 10
-1.4979398306124674
 20
-0.873125
 10
-1.518046875
 20
-0.8584732847606096
 10
-1.5626953125
 20
-0.8573120568019038
 10
-1.60734375
 20
-0.8555773170694196
 10
-1.6519921874999999
 20
-0.8485120309748846
 10
-1.67837092478759
 20
-0.873125
 10
-1.693565149290861
 20
-0.9128125
 10
-1.696640625
 20
-0.9222338763130065
 10
-1.7412890625
 20
-0.9411425805496665
 10
-1.7859375
 20
-0.9289503195085864
 10
-1.7961886374353018
 20
-0.9128125
 10
-1.788539513673932
 20
-0.873125
 10
-1.7859375
 20
-0.8644722510976247
 10
-1.773529687754328
 20
-0.8334375
 10
-1.7511475797341127
 20
-0.79375
 10
-1.7456502758937473
 20
-0.7540625
 10
-1.7412890625
 20
-0.7424202409206576
 10
-1.728942428926883
 20
-0.714375
 10
-1.7412890625
 20
-0.7019844770042013
 10
-1.7766999695355448
 20
-0.6746875
 10
-1.7859375
 20
-0.6685287551563532
 10
-1.7972387040836542
 20
-0.6746875
 10
-1.8305859375
 20
-0.6906694801766247
 10
-1.8487677503395086
 20
-0.6746875
 10
-1.861949436581849
 20
-0.635
 10
-1.875234375
 20
-0.6160527686326085
 10
-1.894678981321549
 20
-0.5953125
 10
-1.9198828125
 20
-0.5870044759877594
 10
-1.9645312499999998
 20
-0.5943406682206765
 10
-1.9679033215128994
 20
-0.5953125
 10
-2.0091796875
 20
-0.6105450787099845
 10
-2.053828125
 20
-0.6111913130822015
 10
-2.0984765625
 20
-0.6050020435027348
 10
-2.1206428428190187
 20
-0.5953125
 10
-2.143125
 20
-0.5882929641106585
 10
-2.1877734374999998
 20
-0.5733830937723043
 10
-2.1976231547411524
 20
-0.555625
 10
-2.2061946685570506
 20
-0.5159375
 10
-2.1994482029381377
 20
-0.47625
 10
-2.232421875
 20
-0.4429206530514092
 10
-2.237377768476117
 20
-0.4365625
 10
-2.2770703125
 20
-0.41817171677119497
 10
-2.32171875
 20
-0.4237057878046163
 10
-2.340042501048362
 20
-0.4365625
 10
-2.346573361291537
 20
-0.47625
 10
-2.3411031232331463
 20
-0.5159375
 10
-2.3282410537142075
 20
-0.555625
 10
-2.32171875
 20
-0.559830861018269
 10
-2.2823871430294114
 20
-0.5953125
 10
-2.2808844365420753
 20
-0.635
 10
-2.2770703125
 20
-0.6391709896950244
 10
-2.25276347644551
 20
-0.635
 10
-2.232421875
 20
-0.6304903693947791
 10
-2.2247962225714937
 20
-0.635
 10
-2.2065331307320677
 20
-0.6746875
 10
-2.2133802386481882
 20
-0.714375
 10
-2.232421875
 20
-0.7524600631978385
 10
-2.2345795633145262
 20
-0.7540625
 10
-2.2465187675941465
 20
-0.79375
 10
-2.232421875
 20
-0.822558041661049
 10
-2.2247835403440313
 20
-0.8334375
 10
-2.195589597632821
 20
-0.873125
 10
-2.1877734374999998
 20
-0.8814631882290892
 10
-2.143125
 20
-0.8921593145620624
 10
-2.1004392091861224
 20
-0.9128125
 10
-2.0984765625
 20
-0.9134054075974751
 10
-2.053828125
 20
-0.9166924914341181
 10
-2.033352872642289
 20
-0.9128125
 10
-2.0091796875
 20
-0.909324371567645
 10
-2.001700301479659
 20
-0.9128125
 10
-1.9645312499999998
 20
-0.9321518069235045
 10
-1.9409955144714903
 20
-0.9525
 10
-1.9377798372061534
 20
-0.9921875
 10
-1.957529986261225
 20
-1.031875
 10
-1.9602619064448283
 20
-1.0715625
 10
-1.9494002329931022
 20
-1.11125
 10
-1.929064885747989
 20
-1.1509375
 10
-1.9198828125
 20
-1.1565142041807777
 10
-1.875234375
 20
-1.1767823840521383
 10
-1.8308237994634022
 20
-1.1509375
 10
-1.8305859375
 20
-1.1507738522674211
 10
-1.797549659752778
 20
-1.11125
 10
-1.8092446303800098
 20
-1.0715625
 10
-1.8189004895824352
 20
-1.031875
 10
-1.7859375
 20
-1.0122606357397195
 10
-1.7461057271282416
 20
-1.031875
 10
-1.746904438654999
 20
-1.0715625
 10
-1.7412890625
 20
-1.0753759230283624
 10
-1.696640625
 20
-1.0960447194737892
 10
-1.6519921874999999
 20
-1.102527503553098
 10
-1.6398925781284823
 20
-1.11125
 10
-1.6110436868855027
 20
-1.1509375
 10
-1.60734375
 20
-1.1532029799213976
 10
-1.5835866328037367
 20
-1.190625
 10
-1.5749942877642553
 20
-1.2303125
 10
-1.5703861050887866
 20
-1.27
 10
-1.564558837744148
 20
-1.3096875000000001
 10
-1.5626953125
 20
-1.3189145553107915
 10
-1.5269392918796283
 20
-1.349375
 10
-1.518046875
 20
-1.3507405938133972
 10
-1.4733984375
 20
-1.3557337763082962
 10
-1.42875
 20
-1.36008752222459
 10
-1.3841015625
 20
-1.3678977235773397
 10
-1.3422218195584876
 20
-1.3890625
 10
-1.339453125
 20
-1.392669377658828
 10
-1.2948046874999999
 20
-1.4181877159349903
 10
-1.2850235907612046
 20
-1.42875
 10
-1.277523056359277
 20
-1.4684375
 10
-1.2542182151088985
 20
-1.508125
 10
-1.2501562499999999
 20
-1.5129280880293914
 10
-1.2055078125
 20
-1.5122091284721257
 10
-1.1835692008466778
 20
-1.5478125
 10
-1.2055078125
 20
-1.5764113736677645
 10
-1.2501562499999999
 20
-1.5681792423228462
 10
-1.2948046874999999
 20
-1.558012938710329
 10
-1.339453125
 20
-1.5873653169686734
 10
-1.3396119873667431
 20
-1.5875
 10
-1.3689360978434912
 20
-1.6271875
 10
-1.3459424724949798
 20
-1.666875
 10
-1.339453125
 20
-1.6752838112138333
 10
-1.2948046874999999
 20
-1.6932488310471328
 10
-1.2501562499999999
 20
-1.7032658931695808
 10
-1.2055078125
 20
-1.7016300666831412
 10
-1.160859375
 20
-1.6834292469355518
 10
-1.1162109375
 20
-1.6860718748160965
 10
-1.0936579815182899
 20
-1.7065625
 10
-1.0715625
 20
-1.739731727364836
 10
-1.067706056266675
 20
-1.74625
 10
-1.0715625
 20
-1.7669791922434674
 10
-1.076212985614529
 20
-1.7859375
 10
-1.0726145334553607
 20
-1.825625
 10
-1.0715625
 20
-1.82839206651175
 10
-1.04903444294314
 20
-1.8653125
 10
-1.0369153974958132
 20
-1.905
 10
-1.0269140625
 20
-1.9123875223728208
 10
-0.9822656249999999
 20
-1.9381415685331689
 10
-0.9704264575932765
 20
-1.9446875000000001
 10
-0.9376171875
 20
-1.9574726652353378
 10
-0.89296875
 20
-1.9468596880102857
 10
-0.8909421353243016
 20
-1.9446875000000001
 10
-0.8483203125
 20
-1.9278135113197856
 10
-0.803671875
 20
-1.9216810904177568
 10
-0.7590234375
 20
-1.9377889491115485
 10
-0.7538627104478395
 20
-1.9446875000000001
 10
-0.7590234375
 20
-1.9627222730918246
 10
-0.7638168587873136
 20
-1.984375
 10
-0.7590234375
 20
-1.9878215736381146
 10
-0.714375
 20
-1.9890261768707476
 10
-0.67426996882574
 20
-2.0240625
 10
-0.6697265625
 20
-2.0295902716120326
 10
-0.6250781249999999
 20
-2.040916243305971
 10
-0.5804296875
 20
-2.045630900792443
 10
-0.53578125
 20
-2.0401555471986015
 10
-0.5213399795648489
 20
-2.0240625
  0
LWPOLYLINE
  5
48
330
17
100
AcDbEntity
  8
CONDUCTIVE_PATCHES
100
AcDbPolyline
 90
217
 70
0
 10
0.6298097522528224
 20
-2.0240625
 10
0.6697265625
 20
-1.9891011056333991
 10
0.714375
 20
-1.987765399241088
 10
0.7190674557030611
 20
-1.984375
 10
0.714375
 20
-1.9627685865353086
 10
0.709301736974258
 20
-1.9446875000000001
 10
0.714375
 20
-1.9379092386969032
 10
0.7590234375
 20
-1.921675332938822
 10
0.803671875
 20
-1.927761654574189
 10
0.8465174703334689
 20
-1.9446875000000001
 10
0.8483203125
 20
-1.9466055501493513
 10
0.89296875
 20
-1.9572181148046195
 10
0.9253779172635498
 20
-1.9446875000000001
 10
0.9376171875
 20
-1.9378979314117855
 10
0.9822656249999999
 20
-1.9119477683896813
 10
0.9916461827374471
 20
-1.905
 10
1.0036792286565208
 20
-1.8653125
 10
1.0269140625
 20
-1.8273695752294752
 10
1.027581083392257
 20
-1.825625
 10
1.0312790367633162
 20
-1.7859375
 10
1.0269140625
 20
-1.7677372731785526
 10
1.0229899353405503
 20
-1.74625
 10
1.0269140625
 20
-1.7396016750638443
 10
1.048670752786789
 20
-1.7065625
 10
1.0715625
 20
-1.6856418207612458
 10
1.1162109375
 20
-1.6827834265288681
 10
1.160859375
 20
-1.7003390917995542
 10
1.2055078125
 20
-1.7027674644851116
 10
1.2501562499999999
 20
-1.6931126959014853
 10
1.2948046874999999
 20
-1.6750367826126007
 10
1.3010784342200463
 20
-1.666875
 10
1.323880164020646
 20
-1.6271875
 10
1.2948046874999999
 20
-1.587711453616135
 10
1.2946205657831416
 20
-1.5875
 10
1.2501562499999999
 20
-1.5581344463791778
 10
1.2055078125
 20
-1.56852999475783
 10
1.160859375
 20
-1.57711296505286
 10
1.1387931375968967
 20
-1.5478125
 10
1.160859375
 20
-1.5124064920667641
 10
1.2055078125
 20
-1.5131164315274825
 10
1.209797915808157
 20
-1.508125
 10
1.233050287485849
 20
-1.4684375
 10
1.2403434482131557
 20
-1.42875
 10
1.2501562499999999
 20
-1.4179947819289278
 10
1.2948046874999999
 20
-1.3923513457736338
 10
1.2973533564827158
 20
-1.3890625
 10
1.339453125
 20
-1.3679450225938536
 10
1.3841015625
 20
-1.360307377628666
 10
1.42875
 20
-1.3562112119025007
 10
1.4733984375
 20
-1.3510314681866475
 10
1.4837789005392301
 20
-1.349375
 10
1.518046875
 20
-1.3175920699006787
 10
1.5195832123357351
 20
-1.3096875000000001
 10
1.5252005948827345
 20
-1.27
 10
1.5300986005864567
 20
-1.2303125
 10
1.538885017425829
 20
-1.190625
 10
1.5626953125
 20
-1.1533986592206515
 10
1.5667532010026093
 20
-1.1509375
 10
1.595461173349581
 20
-1.11125
 10
1.60734375
 20
-1.102555660987212
 10
1.6519921874999999
 20
-1.0958885364167936
 10
1.696640625
 20
-1.075173097888337
 10
1.702044040142643
 20
-1.0715625
 10
1.701235235018301
 20
-1.031875
 10
1.7412890625
 20
-1.0123739813928323
 10
1.7734628486675321
 20
-1.031875
 10
1.7642016997728625
 20
-1.0715625
 10
1.7527645884605683
 20
-1.11125
 10
1.785785992063663
 20
-1.1509375
 10
1.7859375
 20
-1.151078701313382
 10
1.8305859375
 20
-1.1771445925779453
 10
1.875234375
 20
-1.156705850601776
 10
1.8846943497847128
 20
-1.1509375
 10
1.9049049536323543
 20
-1.11125
 10
1.9161741688527942
 20
-1.0715625
 10
1.9143338983921927
 20
-1.031875
 10
1.8938579219071405
 20
-0.9921875
 10
1.8968308749017493
 20
-0.9525
 10
1.9198828125
 20
-0.932452931576654
 10
1.9571981228113708
 20
-0.9128125
 10
1.9645312499999998
 20
-0.9093845106960076
 10
1.9878517429744362
 20
-0.9128125
 10
2.0091796875
 20
-0.9169462574818841
 10
2.053828125
 20
-0.913747648700431
 10
2.0569410985793835
 20
-0.9128125
 10
2.0984765625
 20
-0.8927875343061263
 10
2.143125
 20
-0.8820151300898423
 10
2.151436008220989
 20
-0.873125
 10
2.180409339189528
 20
-0.8334375
 10
2.1877734374999998
 20
-0.8229138746947123
 10
2.202156774348895
 20
-0.79375
 10
2.1902171479416084
 20
-0.7540625
 10
2.1877734374999998
 20
-0.7522610649847735
 10
2.1687902256817546
 20
-0.714375
 10
2.1618912647741166
 20
-0.6746875
 10
2.1800126302356913
 20
-0.635
 10
2.1877734374999998
 20
-0.6304127190327943
 10
2.2080623136327575
 20
-0.635
 10
2.232421875
 20
-0.6392608767800018
 10
2.2362993179828083
 20
-0.635
 10
2.2376544279256034
 20
-0.5953125
 10
2.2770703125
 20
-0.559663542832648
 10
2.283288988105312
 20
-0.555625
 10
2.2960307069871804
 20
-0.5159375
 10
2.3013347312332257
 20
-0.47625
 10
2.2951749497737914
 20
-0.4365625
 10
2.2770703125
 20
-0.4237258313424473
 10
2.232421875
 20
-0.4181473268698425
 10
2.19317273951696
 20
-0.4365625
 10
2.1877734374999998
 20
-0.44357442277357234
 10
2.1559063200153408
 20
-0.47625
 10
2.1621669637394065
 20
-0.5159375
 10
2.153437125436318
 20
-0.555625
 10
2.143125
 20
-0.574113790427112
 10
2.0984765625
 20
-0.5886712428897429
 10
2.0774174033240334
 20
-0.5953125
 10
2.053828125
 20
-0.6056866126996624
 10
2.0091796875
 20
-0.6116810887086321
 10
1.9645312499999998
 20
-0.6110418894163943
 10
1.9217478962928198
 20
-0.5953125
 10
1.9198828125
 20
-0.5947725457504409
 10
1.875234375
 20
-0.5871977069585673
 10
1.8504883739858873
 20
-0.5953125
 10
1.8305859375
 20
-0.6163664532384462
 10
1.8174823104411173
 20
-0.635
 10
1.8043246730272269
 20
-0.6746875
 10
1.7859375
 20
-0.6908417886818077
 10
1.7523376119404606
 20
-0.6746875
 10
1.7412890625
 20
-0.6686567682442158
 10
1.7321808829284668
 20
-0.6746875
 10
1.696640625
 20
-0.7019986084606522
 10
1.684318835799083
 20
-0.714375
 10
1.696640625
 20
-0.742385880460003
 10
1.7010127558597299
 20
-0.7540625
 10
1.7066150340194894
 20
-0.79375
 10
1.7289908833199823
 20
-0.8334375
 10
1.7412890625
 20
-0.8641334182797608
 10
1.7439979424345176
 20
-0.873125
 10
1.7515973848678779
 20
-0.9128125
 10
1.7412890625
 20
-0.9291069641505052
 10
1.696640625
 20
-0.9414260238888941
 10
1.6519921874999999
 20
-0.9237530142500324
 10
1.6484445735971947
 20
-0.9128125
 10
1.6334362627269998
 20
-0.873125
 10
1.60734375
 20
-0.8490250500213402
 10
1.5626953125
 20
-0.8558325902902316
 10
1.518046875
 20
-0.8573146162213405
 10
1.4733984375
 20
-0.8585149512069336
 10
1.4533588841020126
 20
-0.873125
 10
1.4357808106796357
 20
-0.9128125
 10
1.42875
 20
-0.9263878938321937
 10
1.3951663572146276
 20
-0.9525
 10
1.3841015625
 20
-0.9907346277608032
 10
1.3837718904785583
 20
-0.9921875
 10
1.3707093559606707
 20
-1.031875
 10
1.339453125
 20
-1.0702402457173124
 10
1.3338081918357887
 20
-1.0715625
 10
1.2948046874999999
 20
-1.084593961156018
 10
1.2794449387565088
 20
-1.11125
 10
1.2501562499999999
 20
-1.1374473444808382
 10
1.2207097653048544
 20
-1.1509375
 10
1.2055078125
 20
-1.1888599042785348
 10
1.2050149398202545
 20
-1.190625
 10
1.160859375
 20
-1.218861771487838
 10
1.1165351450521523
 20
-1.2303125
 10
1.1162109375
 20
-1.2306324777709183
 10
1.0715625
 20
-1.240567824188921
 10
1.0424153058845833
 20
-1.27
 10
1.0269140625
 20
-1.2763225084841727
 10
0.9822656249999999
 20
-1.2918146196400424
 10
0.9657825006993577
 20
-1.3096875000000001
 10
0.9644761389426233
 20
-1.349375
 10
0.9625245817142609
 20
-1.3890625
 10
0.9545761267304735
 20
-1.42875
 10
0.9822656249999999
 20
-1.4521977061341402
 10
1.0269140625
 20
-1.4657036706879665
 10
1.0375133551076332
 20
-1.4684375
 10
1.0587853990098983
 20
-1.508125
 10
1.0450691715962004
 20
-1.5478125
 10
1.0269140625
 20
-1.5569246554869296
 10
0.9822656249999999
 20
-1.5501254551263057
 10
0.9725310286190584
 20
-1.5478125
 10
0.9376171875
 20
-1.5367834217230218
 10
0.89296875
 20
-1.5168882164928954
 10
0.8483203125
 20
-1.5120016757287564
 10
0.8352226403041204
 20
-1.508125
 10
0.803671875
 20
-1.4971502584050744
 10
0.7897325970624505
 20
-1.508125
 10
0.7590234375
 20
-1.539601449697215
 10
0.7520949197377672
 20
-1.5478125
 10
0.7590234375
 20
-1.557857911208719
 10
0.7770032064275011
 20
-1.5875
 10
0.7590234375
 20
-1.603661655264505
 10
0.714375
 20
-1.6153786776265304
 10
0.6930593718006836
 20
-1.6271875
 10
0.6697265625
 20
-1.6444716013709568
 10
0.660380043023305
 20
-1.666875
 10
0.6686332622631932
 20
-1.7065625
 10
0.6697265625
 20
-1.7095598678838146
 10
0.6868632212413229
 20
-1.74625
 10
0.6875902472225912
 20
-1.7859375
 10
0.6806273378392859
 20
-1.825625
 10
0.6697265625
 20
-1.845328407300582
 10
0.6618295943044467
 20
-1.8653125
 10
0.6450559376426157
 20
-1.905
 10
0.6250781249999999
 20
-1.9137552818795025
 10
0.5804296875
 20
-1.9213744669579922
 10
0.53578125
 20
-1.915377644141251
 10
0.49828583734204074
 20
-1.9446875000000001
 10
0.49113281249999996
 20
-1.949092796697402
 10
0.4704431922746599
 20
-1.984375
 10
0.476669031943347
 20
-2.0240625
 10
0.49113281249999996
 20
-2.0403502661060715
 10
0.53578125
 20
-2.0461554917048277
 10
0.5804296875
 20
-2.0412930655512374
 10
0.6250781249999999
 20
-2.029860151695122
 10
0.6298097522528224
 20
-2.0240625
  0
LWPOLYLINE
  5
49
330
17
100
AcDbEntity
  8
CONDUCTIVE_PATCHES
100
AcDbPolyline
 90
23
 70
0
 10
-0.49927342677377756
 20
-0.714375
 10
-0.5173552817470829
 20
-0.6746875
 10
-0.49113281249999996
 20
-0.651724378742032
 10
-0.446484375
 20
-0.6458637084841331
 10
-0.44213785554226753
 20
-0.635
 10
-0.446484375
 20
-0.6220029797676284
 10
-0.45965391604938177
 20
-0.5953125
 10
-0.49113281249999996
 20
-0.5678811698699112
 10
-0.5077302636500346
 20
-0.555625
 10
-0.53578125
 20
-0.5378358637107776
 10
-0.5804296875
 20
-0.5471629784348605
 10
-0.5862349425791522
 20
-0.555625
 10
-0.5804296875
 20
-0.5687233657275693
 10
-0.53578125
 20
-0.5895724874215815
 10
-0.5307260239544584
 20
-0.5953125
 10
-0.5058178500560261
 20
-0.635
 10
-0.53578125
 20
-0.6619460921049073
 10
-0.5555314000289928
 20
-0.6746875
 10
-0.5804296875
 20
-0.7004600779045309
 10
-0.5863268909531146
 20
-0.714375
 10
-0.5804296875
 20
-0.7227023129458963
 10
-0.53578125
 20
-0.7366715965452768
 10
-0.49927342677377756
 20
-0.714375
  0
LWPOLYLINE
  5
4A
330
17
100
AcDbEntity
  8
CONDUCTIVE_PATCHES
100
AcDbPolyline
 90
23
 70
0
 10
0.5422202422134637
 20
-0.714375
 10
0.53578125
 20
-0.6992166264624301
 10
0.5121356636132893
 20
-0.6746875
 10
0.49113281249999996
 20
-0.6611828089452279
 10
0.4615433287244105
 20
-0.635
 10
0.4865074510085616
 20
-0.5953125
 10
0.49113281249999996
 20
-0.5901027141581826
 10
0.53578125
 20
-0.5695627171568375
 10
0.5419234230436935
 20
-0.555625
 10
0.53578125
 20
-0.5466725577201719
 10
0.49113281249999996
 20
-0.5375330521687465
 10
0.4627972030588237
 20
-0.555625
 10
0.446484375
 20
-0.5677575121502284
 10
0.41474427892974497
 20
-0.5953125
 10
0.4018359375
 20
-0.621427896514281
 10
0.3972778987775494
 20
-0.635
 10
0.4018359375
 20
-0.646481946892578
 10
0.446484375
 20
-0.6524220182568912
 10
0.4713857955813972
 20
-0.6746875
 10
0.453244509836421
 20
-0.714375
 10
0.49113281249999996
 20
-0.7371968204000651
 10
0.53578125
 20
-0.7234582005186584
 10
0.5422202422134637
 20
-0.714375
  0
LWPOLYLINE
  5
4B
330
17
100
AcDbEntity
  8
CONDUCTIVE_PATCHES
100
AcDbPolyline
 90
7
 70
0
 10
-1.4733984375
 20
-1.1545296279643633
 10
-1.4790708484177648
 20
-1.1509375
 10
-1.5029060482344458
 20
-1.11125
 10
-1.4733984375
 20
-1.076520657829349
 10
-1.4587383573530857
 20
-1.11125
 10
-1.4688071822398985
 20
-1.1509375
 10
-1.4733984375
 20
-1.1545296279643633
  0
LWPOLYLINE
  5
4C
330
17
100
AcDbEntity
  8
CONDUCTIVE_PATCHES
100
AcDbPolyline
 90
7
 70
0
 10
1.42875
 20
-1.1544305035096643
 10
1.4243478540191032
 20
-1.1509375
 10
1.4147400124031928
 20
-1.11125
 10
1.42875
 20
-1.0778485555792992
 10
1.4572771022575284
 20
-1.11125
 10
1.434218345766244
 20
-1.1509375
 10
1.42875
 20
-1.1544305035096643
  0
LWPOLYLINE
  5
4D
330
17
100
AcDbEntity
  8
CONDUCTIVE_PATCHES
100
AcDbPolyline
 90
7
 70
0
 10
-1.2948046874999999
 20
-1.2953575627305838
 10
-1.339453125
 20
-1.274860881257959
 10
-1.3433828510757253
 20
-1.27
 10
-1.339453125
 20
-1.2660868810850996
 10
-1.2948046874999999
 20
-1.257546641932538
 10
-1.25722815037925
 20
-1.27
 10
-1.2948046874999999
 20
-1.2953575627305838
  0
LWPOLYLINE
  5
4E
330
17
100
AcDbEntity
  8
CONDUCTIVE_PATCHES
100
AcDbPolyline
 90
7
 70
0
 10
1.2948046874999999
 20
-1.2750421520390647
 10
1.2501562499999999
 20
-1.2962290715170355
 10
1.2110856834856014
 20
-1.27
 10
1.2501562499999999
 20
-1.2569688553256326
 10
1.2948046874999999
 20
-1.265918914757748
 10
1.2988458348459093
 20
-1.27
 10
1.2948046874999999
 20
-1.2750421520390647
  0
LWPOLYLINE
  5
4F
330
17
100
AcDbEntity
  8
CONDUCTIVE_PATCHES
100
AcDbPolyline
 90
5
 70
0
 10
-1.518046875
 20
-1.347273118332483
 10
-1.5598480267141703
 20
-1.3096875000000001
 10
-1.518046875
 20
-1.2863153210775051
 10
-1.4915226892034588
 20
-1.3096875000000001
 10
-1.518046875
 20
-1.347273118332483
  0
LWPOLYLINE
  5
50
330
17
100
AcDbEntity
  8
CONDUCTIVE_PATCHES
100
AcDbPolyline
 90
5
 70
0
 10
1.4733984375
 20
-1.346844070875347
 10
1.4471047656193217
 20
-1.3096875000000001
 10
1.4733984375
 20
-1.2861105166525344
 10
1.5156821868958446
 20
-1.3096875000000001
 10
1.4733984375
 20
-1.346844070875347
  0
LWPOLYLINE
  5
51
330
17
100
AcDbEntity
  8
CONDUCTIVE_PATCHES
100
AcDbPolyline
 90
5
 70
0
 10
-2.804366494178374
 20
-1.3890625
 10
-2.8128515625
 20
-1.3837357514165498
 10
-2.8240102309067265
 20
-1.3890625
 10
-2.8128515625
 20
-1.4189925741808103
 10
-2.804366494178374
 20
-1.3890625
  0
LWPOLYLINE
  5
52
330
17
100
AcDbEntity
  8
CONDUCTIVE_PATCHES
100
AcDbPolyline
 90
5
 70
0
 10
2.7791281004750705
 20
-1.3890625
 10
2.768203125
 20
-1.3838586230648349
 10
2.7599414798050996
 20
-1.3890625
 10
2.768203125
 20
-1.4186127408757097
 10
2.7791281004750705
 20
-1.3890625
  0
LWPOLYLINE
  5
53
330
17
100
AcDbEntity
  8
CONDUCTIVE_PATCHES
100
AcDbPolyline
 90
13
 70
0
 10
-2.2690377594284303
 20
-2.0240625
 10
-2.232421875
 20
-2.005859144370986
 10
-2.224650902608205
 20
-1.984375
 10
-2.232421875
 20
-1.9652169352303246
 10
-2.2554781602782095
 20
-1.9446875000000001
 10
-2.2770703125
 20
-1.9377341659828988
 10
-2.301521646653453
 20
-1.9446875000000001
 10
-2.32171875
 20
-1.9770401028965219
 10
-2.3237133508778682
 20
-1.984375
 10
-2.32171875
 20
-1.9952370094801808
 10
-2.2891925132112427
 20
-2.0240625
 10
-2.2770703125
 20
-2.0258151499485946
 10
-2.2690377594284303
 20
-2.0240625
  0
LWPOLYLINE
  5
54
330
17
100
AcDbEntity
  8
CONDUCTIVE_PATCHES
100
AcDbPolyline
 90
13
 70
0
 10
2.2446417449659797
 20
-2.0240625
 10
2.2770703125
 20
-1.9951502914016597
 10
2.279042043112206
 20
-1.984375
 10
2.2770703125
 20
-1.9772349600730965
 10
2.2565915210601304
 20
-1.9446875000000001
 10
2.232421875
 20
-1.9377799757445229
 10
2.2108691112036643
 20
-1.9446875000000001
 10
2.1877734374999998
 20
-1.9651820309784238
 10
2.179950944634761
 20
-1.984375
 10
2.1877734374999998
 20
-2.006109507316629
 10
2.224170039286455
 20
-2.0240625
 10
2.232421875
 20
-2.0258355012438263
 10
2.2446417449659797
 20
-2.0240625
  0
LWPOLYLINE
  5
55
330
17
100
AcDbEntity
  8
CONDUCTIVE_PATCHES
100
AcDbPolyline
 90
5
 70
0
 10
-1.6014894194008003
 20
-2.460625
 10
-1.60734375
 20
-2.4532813480416396
 10
-1.6405876782362558
 20
-2.460625
 10
-1.60734375
 20
-2.470336039420289
 10
-1.6014894194008003
 20
-2.460625
  0
LWPOLYLINE
  5
56
330
17
100
AcDbEntity
  8
CONDUCTIVE_PATCHES
100
AcDbPolyline
 90
5
 70
0
 10
1.596366682321669
 20
-2.460625
 10
1.5626953125
 20
-2.4530827027084308
 10
1.556702716911607
 20
-2.460625
 10
1.5626953125
 20
-2.470543821719818
 10
1.596366682321669
 20
-2.460625
  0
ENDSEC
  0
SECTION
  2
OBJECTS
  0
DICTIONARY
  5
A
330
0
100
AcDbDictionary
281
1
  3
ACAD_COLOR
350
B
  3
ACAD_GROUP
350
C
  3
ACAD_LAYOUT
350
D
  3
ACAD_MATERIAL
350
E
  3
ACAD_MLEADERSTYLE
350
F
  3
ACAD_MLINESTYLE
350
10
  3
ACAD_PLOTSETTINGS
350
11
  3
ACAD_PLOTSTYLENAME
350
12
  3
ACAD_SCALELIST
350
14
  3
ACAD_TABLESTYLE
350
15
  3
ACAD_VISUALSTYLE
350
16
  3
EZDXF_META
350
2D
  0
DICTIONARY
  5
B
330
A
100
AcDbDictionary
281
1
  0
DICTIONARY
  5
C
330
A
100
AcDbDictionary
281
1
  0
DICTIONARY
  5
D
330
A
100
AcDbDictionary
281
1
  3
Model
350
1A
  3
Layout1
350
1E
  0
DICTIONARY
  5
E
330
A
100
AcDbDictionary
281
1
  3
ByBlock
350
1F
  3
ByLayer
350
20
  3
Global
350
21
  0
DICTIONARY
  5
F
330
A
100
AcDbDictionary
281
1
  3
Standard
350
2C
  0
DICTIONARY
  5
10
330
A
100
AcDbDictionary
281
1
  3
Standard
350
22
  0
DICTIONARY
  5
11
330
A
100
AcDbDictionary
281
1
  0
ACDBDICTIONARYWDFLT
  5
12
330
A
100
AcDbDictionary
281
1
  3
Normal
350
13
100
AcDbDictionaryWithDefault
340
13
  0
ACDBPLACEHOLDER
  5
13
330
12
  0
DICTIONARY
  5
14
330
A
100
AcDbDictionary
281
1
  0
DICTIONARY
  5
15
330
A
100
AcDbDictionary
281
1
  0
DICTIONARY
  5
16
330
A
100
AcDbDictionary
281
1
  0
LAYOUT
  5
1A
330
D
100
AcDbPlotSettings
  1

  4
A3
  6

 40
7.5
 41
20.0
 42
7.5
 43
20.0
 44
420.0
 45
297.0
 46
0.0
 47
0.0
 48
0.0
 49
0.0
140
0.0
141
0.0
142
1.0
143
1.0
 70
1024
 72
1
 73
0
 74
5
  7

 75
16
 76
0
 77
2
 78
300
147
1.0
148
0.0
149
0.0
100
AcDbLayout
  1
Model
 70
1
 71
0
 10
0.0
 20
0.0
 11
420.0
 21
297.0
 12
0.0
 22
0.0
 32
0.0
 14
1e+20
 24
1e+20
 34
1e+20
 15
-1e+20
 25
-1e+20
 35
-1e+20
146
0.0
 13
0.0
 23
0.0
 33
0.0
 16
1.0
 26
0.0
 36
0.0
 17
0.0
 27
1.0
 37
0.0
 76
1
330
17
  0
LAYOUT
  5
1E
330
D
100
AcDbPlotSettings
  1

  4
A3
  6

 40
7.5
 41
20.0
 42
7.5
 43
20.0
 44
420.0
 45
297.0
 46
0.0
 47
0.0
 48
0.0
 49
0.0
140
0.0
141
0.0
142
1.0
143
1.0
 70
0
 72
1
 73
0
 74
5
  7

 75
16
 76
0
 77
2
 78
300
147
1.0
148
0.0
149
0.0
100
AcDbLayout
  1
Layout1
 70
1
 71
1
 10
0.0
 20
0.0
 11
420.0
 21
297.0
 12
0.0
 22
0.0
 32
0.0
 14
1e+20
 24
1e+20
 34
1e+20
 15
-1e+20
 25
-1e+20
 35
-1e+20
146
0.0
 13
0.0
 23
0.0
 33
0.0
 16
1.0
 26
0.0
 36
0.0
 17
0.0
 27
1.0
 37
0.0
 76
1
330
1B
  0
MATERIAL
  5
1F
102
{ACAD_REACTORS
330
E
102
}
330
E
100
AcDbMaterial
  1
ByBlock
  2

 70
0
 40
1.0
 71
1
 41
1.0
 91
-1023410177
 42
1.0
 72
1
  3

 73
1
 74
1
 75
1
 44
0.5
 73
0
 45
1.0
 46
1.0
 77
1
  4

 78
1
 79
1
170
1
 48
1.0
171
1
  6

172
1
173
1
174
1
140
1.0
141
1.0
175
1
  7

176
1
177
1
178
1
143
1.0
179
1
  8

270
1
271
1
272
1
145
1.0
146
1.0
273
1
  9

274
1
275
1
276
1
 42
1.0
 72
1
  3

 73
1
 74
1
 75
1
 94
63
  0
MATERIAL
  5
20
102
{ACAD_REACTORS
330
E
102
}
330
E
100
AcDbMaterial
  1
ByLayer
  2

 70
0
 40
1.0
 71
1
 41
1.0
 91
-1023410177
 42
1.0
 72
1
  3

 73
1
 74
1
 75
1
 44
0.5
 73
0
 45
1.0
 46
1.0
 77
1
  4

 78
1
 79
1
170
1
 48
1.0
171
1
  6

172
1
173
1
174
1
140
1.0
141
1.0
175
1
  7

176
1
177
1
178
1
143
1.0
179
1
  8

270
1
271
1
272
1
145
1.0
146
1.0
273
1
  9

274
1
275
1
276
1
 42
1.0
 72
1
  3

 73
1
 74
1
 75
1
 94
63
  0
MATERIAL
  5
21
102
{ACAD_REACTORS
330
E
102
}
330
E
100
AcDbMaterial
  1
Global
  2

 70
0
 40
1.0
 71
1
 41
1.0
 91
-1023410177
 42
1.0
 72
1
  3

 73
1
 74
1
 75
1
 44
0.5
 73
0
 45
1.0
 46
1.0
 77
1
  4

 78
1
 79
1
170
1
 48
1.0
171
1
  6

172
1
173
1
174
1
140
1.0
141
1.0
175
1
  7

176
1
177
1
178
1
143
1.0
179
1
  8

270
1
271
1
272
1
145
1.0
146
1.0
273
1
  9

274
1
275
1
276
1
 42
1.0
 72
1
  3

 73
1
 74
1
 75
1
 94
63
  0
MLINESTYLE
  5
22
102
{ACAD_REACTORS
330
10
102
}
330
10
100
AcDbMlineStyle
  2
Standard
 70
0
  3

 62
256
 51
90.0
 52
90.0
 71
2
 49
0.5
 62
256
  6
BYLAYER
 49
-0.5
 62
256
  6
BYLAYER
  0
MLEADERSTYLE
  5
2C
102
{ACAD_REACTORS
330
F
102
}
330
F
100
AcDbMLeaderStyle
179
2
170
2
171
1
172
0
 90
2
 40
0.0
 41
0.0
173
1
 91
-1056964608
 92
-2
290
1
 42
2.0
291
1
 43
8.0
  3
Standard
 44
4.0
300

342
29
174
1
175
1
176
0
178
1
 93
-1056964608
 45
4.0
292
0
297
0
 46
4.0
 94
-1056964608
 47
1.0
 49
1.0
140
1.0
294
1
141
0.0
177
0
142
1.0
295
0
296
0
143
3.75
271
0
272
9
273
9
  0
DICTIONARY
  5
2D
330
A
100
AcDbDictionary
280
1
281
1
  3
CREATED_BY_EZDXF
350
2E
  3
WRITTEN_BY_EZDXF
350
59
  0
DICTIONARYVAR
  5
2E
330
2D
100
DictionaryVariables
280
0
  1
1.4.4 @ 2026-09-04T15:28:41.228956+00:00
  0
DICTIONARYVAR
  5
59
330
2D
100
DictionaryVariables
280
0
  1
1.4.4 @ 2026-09-04T15:28:41.232875+00:00
  0
ENDSEC
  0
EOF
